<svg width="20" height="20" viewBox="0 0 20 20" fill="none" xmlns="http://www.w3.org/2000/svg">
<path d="M5.57979 2.08L4.14979 0.65C1.74978 2.48 0.169785 5.3 0.0297852 8.5H2.02979C2.17979 5.85 3.53979 3.53 5.57979 2.08ZM17.9698 8.5H19.9698C19.8198 5.3 18.2398 2.48 15.8498 0.65L14.4298 2.08C16.4498 3.53 17.8198 5.85 17.9698 8.5ZM15.9998 9C15.9998 5.93 14.3598 3.36 11.4998 2.68V2C11.4998 1.17 10.8298 0.5 9.99979 0.5C9.16979 0.5 8.49979 1.17 8.49979 2V2.68C5.62979 3.36 3.99979 5.92 3.99979 9V14L1.99979 16V17H17.9998V16L15.9998 14V9ZM9.99979 20C10.1398 20 10.2698 19.99 10.3998 19.96C11.0498 19.82 11.5798 19.38 11.8398 18.78C11.9398 18.54 11.9898 18.28 11.9898 18H7.98979C7.99979 19.1 8.88979 20 9.99979 20Z" fill="#FF6565"/>
</svg>
