<svg width="30" height="30" viewBox="0 0 30 30" fill="none" xmlns="http://www.w3.org/2000/svg">
<path fill-rule="evenodd" clip-rule="evenodd" d="M15 0.0297852C6.7125 0.0297852 0 6.90521 0 15.3939C0 22.1925 4.29375 27.9348 10.2562 29.9706C11.0062 30.105 11.2875 29.6441 11.2875 29.2408C11.2875 28.8759 11.2688 27.6659 11.2688 26.3792C7.5 27.0898 6.525 25.4381 6.225 24.5739C6.05625 24.1322 5.325 22.7686 4.6875 22.4037C4.1625 22.1157 3.4125 21.4051 4.66875 21.3859C5.85 21.3667 6.69375 22.4998 6.975 22.9607C8.325 25.2845 10.4813 24.6315 11.3438 24.2282C11.475 23.2296 11.8687 22.5574 12.3 22.1733C8.9625 21.7892 5.475 20.464 5.475 14.5873C5.475 12.9164 6.05625 11.5336 7.0125 10.4582C6.8625 10.0741 6.3375 8.49924 7.1625 6.38668C7.1625 6.38668 8.41875 5.98337 11.2875 7.9615C12.4875 7.6158 13.7625 7.44296 15.0375 7.44296C16.3125 7.44296 17.5875 7.6158 18.7875 7.9615C21.6562 5.96416 22.9125 6.38668 22.9125 6.38668C23.7375 8.49924 23.2125 10.0741 23.0625 10.4582C24.0188 11.5336 24.6 12.8972 24.6 14.5873C24.6 20.4832 21.0938 21.7892 17.7563 22.1733C18.3 22.6534 18.7688 23.5753 18.7688 25.0156C18.7688 27.0706 18.75 28.7222 18.75 29.2408C18.75 29.6441 19.0312 30.1242 19.7812 29.9706C25.7063 27.9348 30 22.1733 30 15.3939C30 6.90521 23.2875 0.0297852 15 0.0297852Z" fill="white"/>
</svg>
