<svg width="23" height="23" viewBox="0 0 23 23" fill="none" xmlns="http://www.w3.org/2000/svg">
<path d="M16.375 14.5H15.3875L15.0375 14.1625C16.2625 12.7375 17 10.8875 17 8.875C17 4.3875 13.3625 0.75 8.875 0.75C4.3875 0.75 0.75 4.3875 0.75 8.875C0.75 13.3625 4.3875 17 8.875 17C10.8875 17 12.7375 16.2625 14.1625 15.0375L14.5 15.3875V16.375L20.75 22.6125L22.6125 20.75L16.375 14.5ZM8.875 14.5C5.7625 14.5 3.25 11.9875 3.25 8.875C3.25 5.7625 5.7625 3.25 8.875 3.25C11.9875 3.25 14.5 5.7625 14.5 8.875C14.5 11.9875 11.9875 14.5 8.875 14.5Z" fill="white"/>
</svg>
