<svg width="30" height="30" viewBox="0 0 30 30" fill="none" xmlns="http://www.w3.org/2000/svg">
<path d="M26.7622 14.475L15.5122 3.225C15.0622 2.775 14.4372 2.5 13.7497 2.5H4.99969C3.62469 2.5 2.49969 3.625 2.49969 5V13.75C2.49969 14.4375 2.77469 15.0625 3.23719 15.525L14.4872 26.775C14.9372 27.225 15.5622 27.5 16.2497 27.5C16.9372 27.5 17.5622 27.225 18.0122 26.7625L26.7622 18.0125C27.2247 17.5625 27.4997 16.9375 27.4997 16.25C27.4997 15.5625 27.2122 14.925 26.7622 14.475ZM6.87469 8.75C5.83719 8.75 4.99969 7.9125 4.99969 6.875C4.99969 5.8375 5.83719 5 6.87469 5C7.91219 5 8.74969 5.8375 8.74969 6.875C8.74969 7.9125 7.91219 8.75 6.87469 8.75Z" fill="black"/>
</svg>
