<svg width="31" height="30" viewBox="0 0 31 30" fill="none" xmlns="http://www.w3.org/2000/svg">
<path d="M15.5 0.416748C7.45002 0.416748 0.916687 6.95008 0.916687 15.0001C0.916687 23.0501 7.45002 29.5834 15.5 29.5834C23.55 29.5834 30.0834 23.0501 30.0834 15.0001C30.0834 6.95008 23.55 0.416748 15.5 0.416748ZM15.5 6.25008C18.3146 6.25008 20.6042 8.53966 20.6042 11.3542C20.6042 14.1688 18.3146 16.4584 15.5 16.4584C12.6854 16.4584 10.3959 14.1688 10.3959 11.3542C10.3959 8.53966 12.6854 6.25008 15.5 6.25008ZM15.5 26.6667C12.5396 26.6667 9.0396 25.4709 6.54585 22.4667C9.01044 20.5417 12.1167 19.3751 15.5 19.3751C18.8834 19.3751 21.9896 20.5417 24.4542 22.4667C21.9604 25.4709 18.4604 26.6667 15.5 26.6667Z" fill="white"/>
</svg>
