<svg width="800" height="150" viewBox="0 0 800 150" fill="none" xmlns="http://www.w3.org/2000/svg">
<rect width="800" height="150" rx="20" fill="#1A2B48"/>
<path d="M78.2901 46.9677C75.4629 46.9677 70.7508 43.9805 67.6094 43.9805C64.468 43.9805 63.7962 47.2463 63.2115 47.9634C62.6267 48.6805 57.8711 55.1824 57.2428 56.1782C56.6866 57.0597 52.191 63.7944 49.8592 75.0005C49.5572 76.4522 49.3499 77.5466 49.0752 79.5779C48.8006 81.6092 48.9712 83.8459 48.984 85.0632C48.9967 86.2805 49.1892 87.8804 49.3894 89.7841C50.0176 95.7585 53.159 98.9946 53.159 98.9946C53.159 98.9946 56.6146 103.475 63.8397 105.218C71.0649 106.96 76.4053 106.96 76.4053 106.96H82.4627C82.4627 106.96 87.8031 106.96 95.0283 105.218C102.253 103.475 105.709 98.9946 105.709 98.9946C105.709 98.9946 108.85 95.7585 109.479 89.7841C109.679 87.8804 109.871 86.2805 109.884 85.0632C109.897 83.8459 110.067 81.6092 109.793 79.5779C109.518 77.5466 109.311 76.4522 109.009 75.0005C106.677 63.7944 102.181 57.0597 101.625 56.1782C100.997 55.1824 96.2413 48.6805 95.6565 47.9634C95.0718 47.2463 94.4 43.9805 91.2586 43.9805C88.1172 43.9805 83.4051 46.9677 80.5779 46.9677H78.2901Z" fill="white"/>
<path d="M80.8032 46.9677H78.2901C75.4629 46.9677 70.7508 43.9805 67.6094 43.9805C64.468 43.9805 63.7962 47.2463 63.2115 47.9634C62.6267 48.6805 57.8711 55.1824 57.2428 56.1782C56.6866 57.0597 52.191 63.7944 49.8592 75.0005C49.5572 76.4522 49.3499 77.5466 49.0752 79.5779C48.8006 81.6092 48.9712 83.8459 48.984 85.0632C48.9967 86.2805 49.1892 87.8804 49.3894 89.7841C50.0176 95.7585 53.159 98.9946 53.159 98.9946C53.159 98.9946 56.6146 103.475 63.8397 105.218C71.0649 106.96 76.4053 106.96 76.4053 106.96H82.6881M78.0648 46.9677H80.5779C83.4051 46.9677 88.1172 43.9805 91.2586 43.9805C94.4 43.9805 95.0718 47.2463 95.6565 47.9634C96.2413 48.6805 100.997 55.1824 101.625 56.1782C102.181 57.0597 106.677 63.7944 109.009 75.0005C109.311 76.4522 109.518 77.5466 109.793 79.5779C110.067 81.6092 109.897 83.8459 109.884 85.0632C109.871 86.2805 109.679 87.8804 109.479 89.7841C108.85 95.7585 105.709 98.9946 105.709 98.9946C105.709 98.9946 102.253 103.475 95.0283 105.218C87.8031 106.96 82.4627 106.96 82.4627 106.96H76.1799" stroke="#222222" stroke-width="4" stroke-linecap="round"/>
<circle cx="68.1899" cy="67.0097" r="3.29" fill="#222222"/>
<circle cx="89.81" cy="67.0097" r="3.29" fill="#222222"/>
<path d="M74.2998 72.18C74.2998 72.18 76.6498 72.18 77.8248 70.4447C78.9998 68.7093 78.9998 66.54 78.9998 66.54" stroke="#222222" stroke-width="4" stroke-linecap="round"/>
<path d="M83.7002 72.18C83.7002 72.18 81.3502 72.18 80.1752 70.4447C79.0002 68.7093 79.0002 66.54 79.0002 66.54" stroke="#222222" stroke-width="4" stroke-linecap="round"/>
<path d="M76.0783 87.8629C76.0783 87.9757 76.0633 88.0847 76.0332 88.19C76.0031 88.2953 75.9505 88.3893 75.8753 88.472C75.8452 88.5171 75.7926 88.5773 75.7174 88.6525C75.6422 88.7202 75.5406 88.8179 75.4128 88.9458C75.097 89.209 74.7962 89.4872 74.5104 89.7805C74.2322 90.0738 73.9614 90.3821 73.6982 90.7054C73.608 90.8107 73.5178 90.9198 73.4275 91.0326C73.3373 91.1454 73.2658 91.2619 73.2132 91.3822C73.1606 91.5026 73.1342 91.6304 73.1342 91.7658C73.1418 91.9011 73.1982 92.0402 73.3034 92.1831C73.4914 92.4463 73.6907 92.6982 73.9013 92.9389C74.1118 93.1795 74.3374 93.4164 74.5781 93.6495C74.721 93.7999 74.8638 93.9466 75.0067 94.0894C75.1571 94.2323 75.3 94.3752 75.4354 94.5181C75.6158 94.6986 75.7249 94.8903 75.7625 95.0934C75.8001 95.2889 75.7813 95.4618 75.7061 95.6122C75.6309 95.7626 75.5068 95.8717 75.3338 95.9394C75.1684 96.007 74.9691 95.9958 74.736 95.9055C74.6157 95.8529 74.4991 95.7814 74.3863 95.6912C74.2735 95.6085 74.1645 95.5145 74.0592 95.4092C73.9539 95.2964 73.8524 95.1836 73.7546 95.0708C73.6569 94.958 73.5666 94.8527 73.4839 94.755C72.0702 93.1983 71.3633 92.1681 71.3633 91.6642C71.3633 91.2807 71.6378 90.7242 72.1867 89.9948C72.3973 89.7316 72.6304 89.4571 72.8861 89.1714C73.1418 88.8781 73.4275 88.5886 73.7434 88.3028C73.9389 88.1073 74.1382 87.9155 74.3412 87.7275C74.5518 87.532 74.7811 87.3666 75.0293 87.2312C75.1346 87.1786 75.2474 87.156 75.3677 87.1635C75.4955 87.1635 75.6121 87.1936 75.7174 87.2538C75.8226 87.3064 75.9091 87.3854 75.9768 87.4906C76.0445 87.5959 76.0783 87.72 76.0783 87.8629Z" fill="#222222"/>
<path d="M77.9381 95.8491C77.8479 95.8491 77.7614 95.8341 77.6787 95.804C77.596 95.7739 77.5245 95.7326 77.4644 95.6799C77.4042 95.6273 77.3591 95.5634 77.329 95.4882C77.2989 95.413 77.2914 95.3265 77.3064 95.2287C77.2613 95.0934 77.2576 94.973 77.2952 94.8678C77.3328 94.755 77.3816 94.6422 77.4418 94.5294H77.4305C77.6937 93.9428 77.9494 93.3675 78.1976 92.8035C78.4532 92.232 78.7202 91.6642 78.9984 91.1002C79.2466 90.5738 79.476 90.0775 79.6865 89.6113C79.8971 89.145 80.1039 88.6863 80.3069 88.2351C80.3445 88.1524 80.3896 88.0697 80.4423 87.987C80.4949 87.9042 80.5551 87.8403 80.6228 87.7952C80.6904 87.7426 80.7694 87.7087 80.8596 87.6937C80.9499 87.6786 81.0589 87.6974 81.1868 87.7501C81.3823 87.8328 81.5252 87.9494 81.6154 88.0998C81.7132 88.2502 81.7432 88.4231 81.7056 88.6186C81.6004 88.8894 81.5139 89.1112 81.4462 89.2842C81.386 89.4496 81.3221 89.6038 81.2544 89.7466C81.1943 89.8895 81.1266 90.0362 81.0514 90.1866C80.9762 90.337 80.8784 90.5325 80.7581 90.7731C80.6453 91.0138 80.5024 91.3183 80.3295 91.6868C80.164 92.0478 79.9535 92.514 79.6978 93.0855C79.5624 93.3938 79.4233 93.6871 79.2804 93.9654C79.1451 94.2436 79.0097 94.5218 78.8744 94.8001C78.8292 94.8828 78.7804 94.9843 78.7277 95.1046C78.6751 95.2174 78.6187 95.3415 78.5585 95.4769C78.4984 95.6047 78.4119 95.6987 78.2991 95.7589C78.1863 95.819 78.066 95.8491 77.9381 95.8491Z" fill="#222222"/>
<path d="M82.783 87.8629C82.783 87.72 82.8169 87.5959 82.8846 87.4906C82.9522 87.3854 83.0387 87.3064 83.144 87.2538C83.2493 87.1936 83.3621 87.1635 83.4824 87.1635C83.6102 87.156 83.7268 87.1786 83.8321 87.2312C84.0802 87.3666 84.3058 87.532 84.5089 87.7275C84.7194 87.9155 84.9225 88.1073 85.118 88.3028C85.4338 88.5886 85.7196 88.8781 85.9753 89.1714C86.231 89.4571 86.4641 89.7316 86.6746 89.9948C87.2236 90.7242 87.4981 91.2807 87.4981 91.6642C87.4981 92.1681 86.7912 93.1983 85.3774 94.755C85.2947 94.8527 85.2045 94.958 85.1067 95.0708C85.009 95.1836 84.9074 95.2964 84.8022 95.4092C84.6969 95.5145 84.5878 95.6085 84.475 95.6912C84.3622 95.7814 84.2457 95.8529 84.1254 95.9055C83.8922 95.9958 83.6892 96.007 83.5162 95.9394C83.3508 95.8717 83.2305 95.7626 83.1553 95.6122C83.0801 95.4618 83.0613 95.2889 83.0989 95.0934C83.1365 94.8903 83.2455 94.6986 83.426 94.5181C83.5614 94.3752 83.7005 94.2323 83.8434 94.0894C83.9938 93.9466 84.1404 93.7999 84.2833 93.6495C84.5239 93.4164 84.7495 93.1795 84.9601 92.9389C85.1706 92.6982 85.3699 92.4463 85.5579 92.1831C85.6557 92.0402 85.7083 91.9011 85.7158 91.7658C85.7234 91.6304 85.7008 91.5026 85.6482 91.3822C85.5955 91.2619 85.5241 91.1454 85.4338 91.0326C85.3436 90.9198 85.2534 90.8107 85.1631 90.7054C84.8999 90.3821 84.6254 90.0738 84.3397 89.7805C84.0614 89.4872 83.7644 89.209 83.4486 88.9458C83.3207 88.8179 83.2192 88.7202 83.144 88.6525C83.0688 88.5773 83.0162 88.5171 82.9861 88.472C82.9109 88.3893 82.8582 88.2953 82.8282 88.19C82.7981 88.0847 82.783 87.9757 82.783 87.8629Z" fill="#222222"/>
<path d="M139.131 48.3262V49.8379C139.113 51.7363 139.131 53.8809 138.48 57.0625L137.127 56.9043C137.435 55.4893 137.593 54.25 137.689 53.1426L128.127 53.7227L127.898 52.5098L137.742 52.1055C137.777 51.2793 137.777 50.5322 137.777 49.8379V49.4688H128.355V48.3262H139.131ZM140.871 59.1191V60.2969H126.633V59.1191H132.223V55.0762H133.576V59.1191H140.871ZM154.811 54.3203V55.4629H144.018V48.2559H154.652V49.3984H145.389V54.3203H154.811ZM156.498 59.1367V60.2969H142.189V59.1367H156.498ZM172.055 59.3301V60.4902H157.746V59.3301H164.18V56.377H159.539V51.5605H168.891V49.0996H159.504V47.957H170.244V52.6855H160.91V55.2344H170.613V56.377H165.533V59.3301H172.055ZM184.816 47.8691C184.816 51.6309 182.988 54.5664 178.664 56.3418L177.979 55.2871C180.272 54.3994 181.758 53.1953 182.602 51.7188L178.172 52.1934L177.943 51.0508L183.076 50.7168C183.261 50.1719 183.375 49.5918 183.428 48.9941H178.699V47.8691H184.816ZM191.092 46.8145V56.0254H189.773V51.9297H187.646V55.9023H186.328V47.1133H187.646V50.7695H189.773V46.8145H191.092ZM191.092 56.7461V62.2129H180.773V56.7461H191.092ZM182.127 57.8711V61.0879H189.738V57.8711H182.127ZM202.447 48.4492V49.6094H200.637V57.168C201.428 57.124 202.201 57.0537 202.939 56.9746L203.027 57.9941C199.828 58.4863 196.137 58.5566 193.395 58.5566L193.254 57.3789L195.363 57.3613V49.6094H193.746V48.4492H202.447ZM206.332 46.7969V62.4238H204.961V53.8457H201.902V52.7031H204.961V46.7969H206.332ZM196.717 57.3262C197.561 57.3174 198.431 57.291 199.301 57.2383V49.6094H196.717V57.3262ZM216.721 49.0996C216.721 51.7715 219.779 54.1621 222.504 54.6719L221.871 55.832C219.516 55.2871 217.028 53.6084 216.018 51.2969C215.007 53.5996 212.528 55.2783 210.164 55.832L209.531 54.6719C212.238 54.1445 215.279 51.7891 215.279 49.0996V47.9043H216.721V49.0996ZM223.242 59.1543V60.2969H208.934V59.1543H223.242ZM238.781 54.0566V55.1465H224.473V54.0566H238.781ZM236.988 56.3945V59.7168H227.602V61.2109H237.498V62.2129H226.213V58.7676H235.617V57.4316H226.195V56.3945H236.988ZM236.936 47.2715V50.5059H227.707V51.877H237.217V52.8789H226.336V49.5566H235.547V48.2734H226.283V47.2715H236.936ZM252.457 48.2207V55.4102H245.232V48.2207H252.457ZM246.586 49.3457V54.3027H251.121V49.3457H246.586ZM256.781 46.7969V51.5605H259.137V52.7207H256.781V58.2578H255.41V46.7969H256.781ZM257.502 60.9297V62.0898H247.008V57.168H248.361V60.9297H257.502ZM272.742 54.3203V55.4629H261.949V48.2559H272.584V49.3984H263.32V54.3203H272.742ZM274.43 59.1367V60.2969H260.121V59.1367H274.43ZM288.316 51.543V52.6504H277.611V47.377H278.982V51.543H288.316ZM289.969 54.7773V55.9023H275.66V54.7773H289.969ZM288.404 60.8945V62.0371H277.523V57.502H278.895V60.8945H288.404ZM300.99 50.998C300.99 53.7578 302.818 56.5879 305.033 57.6777L304.189 58.7852C302.467 57.8799 301.025 56.0342 300.34 53.8633C299.637 56.1748 298.16 58.1436 296.402 59.084L295.523 57.9766C297.809 56.8516 299.619 53.8457 299.637 50.998V48.1504H300.99V50.998ZM307.846 46.7969V53.1426H310.465V54.3379H307.846V62.4238H306.475V46.7969H307.846ZM323.525 46.8145V50.8223H325.898V52H323.525V56.1309H322.154V46.8145H323.525ZM323.525 56.9043V62.2129H313.629V56.9043H323.525ZM314.982 57.9766V61.0879H322.189V57.9766H314.982ZM319.061 47.6582V51.9297H313.365V54.1445C316.143 54.1445 318.155 54.0654 320.59 53.6699L320.73 54.7773C318.217 55.2168 316.125 55.3047 313.225 55.3047H312.012V50.8574H317.707V48.8008H311.977V47.6582H319.061ZM341.121 53.3711V54.4785H326.865V53.3711H341.121ZM339.416 50.9629V52.0879H328.764V47.3418H339.258V48.4492H330.152V50.9629H339.416ZM339.275 55.8848V59.5059H329.994V61.123H339.75V62.248H328.623V58.4688H337.922V56.957H328.588V55.8848H339.275Z" fill="white"/>
<path d="M176 105.213V70.7869H183.843V105.213H176Z" fill="white"/>
<path d="M190.067 72.7541L195.9 71.1311L196.684 70.9344L197.175 70.7869L212.616 91.541V70.7869H220.166V103.295L213.597 105.066L213.009 105.213L197.616 84.5082V105.213H190.067V72.7541Z" fill="white"/>
<path d="M226.067 105.213V70.7869H252.685V78.5574H233.91V85.2951H252.685V93.0656H233.91V105.213H226.067Z" fill="white"/>
<path d="M275.142 77.9672C269.602 77.9672 265.337 82.5902 265.337 88C265.337 93.4098 269.602 98.0328 275.142 98.0328C280.681 98.0328 284.946 93.4098 284.946 88C284.946 82.5902 280.681 77.9672 275.142 77.9672ZM257.592 88C257.592 81.5082 260.974 75.6557 266.367 72.459C269.063 70.8361 271.955 70.0492 275.142 70.0492C281.465 70.0492 287.152 73.4918 290.338 79C291.907 81.7541 292.691 84.7541 292.691 88C292.691 94.4918 289.26 100.344 283.916 103.541C281.22 105.164 278.328 105.951 275.142 105.951C268.818 105.951 263.082 102.508 259.945 97C258.376 94.2459 257.592 91.2459 257.592 88Z" fill="white"/>
<path d="M323.563 70.7869V78.5574H312.877V105.213H305.033V78.5574H294.346V70.7869H323.563Z" fill="white"/>
<path d="M322.509 87.4098L326.381 80.7213C326.921 81.2623 327.803 81.9508 328.979 82.8852C329.617 80.082 330.793 77.7213 332.411 75.7541C335.646 71.8689 340.205 70 344.911 70C348.147 70 351.039 70.8361 353.637 72.459C357.363 74.7705 359.471 78.7541 359.471 82.8852C359.471 84.9016 358.981 86.8197 357.951 88.6393C355.941 92.2787 351.676 94.9344 345.549 95.4754C344.519 95.5246 343.686 95.5738 343.147 95.5738C341.186 95.5738 339.274 95.377 337.46 94.9836C338.833 97.1967 341.578 98.3279 345.745 98.3279C349.765 98.3279 353.392 97.3443 356.677 95.3279L360.647 101.721C356.088 104.525 351.235 105.951 345.99 105.951C342.509 105.951 339.568 105.311 337.068 104.082C332.068 101.623 329.274 97.4426 328.734 92.8689L328.587 91.5902C326.381 90.3607 324.371 88.9836 322.509 87.4098ZM335.99 86.623C338.441 87.5574 340.843 88 343.196 88C343.539 88 344.078 87.9508 344.862 87.9016C348.735 87.5574 351.186 86.0328 351.774 83.6721C351.823 83.4754 351.873 83.1803 351.873 82.7869C351.873 81.2623 350.99 79.7869 349.569 78.9508C348.147 78.0656 346.578 77.623 344.813 77.623C343.049 77.623 341.431 78.0656 340.009 78.9508C337.705 80.4754 336.333 83.0328 335.99 86.623Z" fill="white"/>
<path d="M362.861 103.197L376.685 70.7869H384.529L398.402 103.197L391.098 106L387.617 97.8361H373.646L370.166 106L362.861 103.197ZM376.587 90.9016H384.676L380.607 81.3607L376.587 90.9016Z" fill="white"/>
<path d="M416.362 98.1803L409.548 86.4754V105.213H401.999V72.6557L408.862 70.7869L419.499 88.9836L430.088 70.7869L437 72.6557V105.213H429.451V86.4754L422.637 98.1803H416.362Z" fill="white"/>
<path d="M485.789 75.0352V101.695H482.186V88.1309H479.754V100.523H476.268V75.7383H479.754V85.1426H482.186V75.0352H485.789ZM474.393 78.3164C474.363 85.7578 472.137 91.8516 464.637 96.2168L462.469 93.6387C467.903 90.4453 470.232 86.5342 470.76 81.3047H463.816V78.3164H474.393ZM493.23 76.2363V79.4004H498.68V76.2363H502.43V87.8672H489.51V76.2363H493.23ZM493.23 84.9375H498.68V82.2129H493.23V84.9375ZM509.871 75.0352V80.2207H513.475V83.2383H509.871V88.5996H506.121V75.0352H509.871ZM509.871 89.5957V96.832H495.896V98.5605H510.633V101.52H492.234V94.166H506.15V92.4961H492.176V89.5957H509.871ZM524.49 82.3008C524.461 86.373 526.629 91.0605 531.023 93.082L528.943 96.0117C525.97 94.6494 523.846 91.9248 522.674 88.7168C521.473 92.2471 519.29 95.2354 516.199 96.6855L514.031 93.7266C518.484 91.6465 520.711 86.6953 520.74 82.3008V80.6602H515.086V77.6133H529.852V80.6602H524.49V82.3008ZM535.682 75.0352V85.2012H539.607V88.3359H535.682V101.695H531.932V75.0352H535.682ZM550.945 92.1738C549.568 92.1738 548.455 91.0605 548.484 89.7129C548.455 88.3652 549.568 87.2812 550.945 87.2812C552.234 87.2812 553.377 88.3652 553.377 89.7129C553.377 91.0605 552.234 92.1738 550.945 92.1738ZM578.279 75.0352V101.754H574.5V75.0352H578.279ZM570.545 77.3789V80.4258H561.316V92.2324C566.092 92.2178 569.021 92.1152 572.391 91.5L572.742 94.5762C569.051 95.2793 565.652 95.3965 559.881 95.3965H557.566V77.3789H570.545ZM591.727 82.3008C591.697 86.373 593.865 91.0605 598.26 93.082L596.18 96.0117C593.206 94.6494 591.082 91.9248 589.91 88.7168C588.709 92.2471 586.526 95.2354 583.436 96.6855L581.268 93.7266C585.721 91.6465 587.947 86.6953 587.977 82.3008V80.6602H582.322V77.6133H597.088V80.6602H591.727V82.3008ZM602.918 75.0352V85.2012H606.844V88.3359H602.918V101.695H599.168V75.0352H602.918ZM630.135 75.0352V101.754H626.355V75.0352H630.135ZM615.662 76.9102C619.676 76.9102 622.664 80.6016 622.664 86.4023C622.664 92.2617 619.676 95.9238 615.662 95.9238C611.561 95.9238 608.572 92.2617 608.602 86.4023C608.572 80.6016 611.561 76.9102 615.662 76.9102ZM615.662 80.2793C613.582 80.2793 612.205 82.4473 612.205 86.4023C612.205 90.3867 613.582 92.5254 615.662 92.5254C617.684 92.5254 619.061 90.3867 619.061 86.4023C619.061 82.4473 617.684 80.2793 615.662 80.2793ZM656.268 75.0352V101.754H652.547V86.3145H645.252V83.2676H652.547V75.0352H656.268ZM638.865 77.877V92.3496C642.264 92.3057 645.721 92.0127 649.354 91.3242L649.764 94.3711C645.457 95.2793 641.355 95.4844 637.371 95.4844H635.115V77.877H638.865ZM690.984 95.5137V98.5898H666.58V95.5137H676.863V90.0645H669.158V76.998H688.26V90.0645H680.584V95.5137H690.984ZM672.85 79.9863V87.1348H684.568V79.9863H672.85ZM708.27 76.5V79.4883H702.938C703.113 82.3008 705.12 85.1133 709.295 86.2559L707.42 89.1562C704.373 88.292 702.234 86.4609 701.033 84.1172C699.817 86.6514 697.635 88.6582 694.471 89.625L692.596 86.6953C696.844 85.4648 698.909 82.5059 699.1 79.4883H693.621V76.5H708.27ZM714.832 75.0352V89.5078H711.082V75.0352H714.832ZM700.682 90.6211V93.1113H711.111V90.6211H714.832V101.402H696.99V90.6211H700.682ZM700.682 98.4141H711.111V96.0117H700.682V98.4141Z" fill="white"/>
</svg>
