<svg viewBox="0 0 24 24" fill="none" xmlns="http://www.w3.org/2000/svg">
<path d="M12 2.5C6.47715 2.5 2 6.97715 2 12.5C2 18.0228 6.47715 22.5 12 22.5C17.5228 22.5 22 18.0228 22 12.5C22 6.97715 17.5228 2.5 12 2.5Z" stroke="#FF4500" stroke-width="1.5" stroke-linecap="round" stroke-linejoin="round"/>
<path d="M4.27148 18.8457C4.27148 18.8457 6.50051 16 12.0005 16C17.5005 16 19.7295 18.8457 19.7295 18.8457" stroke="#FF4500" stroke-width="1.5" stroke-linecap="round" stroke-linejoin="round"/>
<path d="M12 12.5C13.6569 12.5 15 11.1569 15 9.5C15 7.84315 13.6569 6.5 12 6.5C10.3431 6.5 9 7.84315 9 9.5C9 11.1569 10.3431 12.5 12 12.5Z" stroke="#FF4500" stroke-width="1.5" stroke-linecap="round" stroke-linejoin="round"/>
</svg>
