<svg xmlns="http://www.w3.org/2000/svg" width="24" viewBox="0 0 24 24" fill="none">
  <path fill-rule="evenodd" clip-rule="evenodd" d="M21 17V10.7076C21 9.30887 20.2694 8.01175 19.0732 7.28679L14.0732 4.25649C12.7989 3.48421 11.2011 3.48421 9.92679 4.25649L4.92679 7.28679C3.73061 8.01175 3 9.30887 3 10.7076V17C3 19.2091 4.79086 21 7 21H9V17C9 15.3431 10.3431 14 12 14C13.6569 14 15 15.3431 15 17V21H17C19.2091 21 21 19.2091 21 17Z" />
  <path d="M9 21V17C9 15.3431 10.3431 14 12 14V14C13.6569 14 15 15.3431 15 17V21M9 21H15M9 21H7M15 21H17M21 10.7076V17M21 10.7076C21 9.30887 20.2694 8.01175 19.0732 7.28679M21 10.7076V10.7076C21 9.30887 20.2694 8.01175 19.0732 7.28679V7.28679M21 17C21 19.2091 19.2091 21 17 21M21 17V17C21 19.2091 19.2091 21 17 21V21M7 21C4.79086 21 3 19.2091 3 17M7 21V21C4.79086 21 3 19.2091 3 17V17M3 17V10.7076M3 10.7076C3 9.30887 3.73061 8.01175 4.92679 7.28679M3 10.7076V10.7076C3 9.30887 3.73061 8.01175 4.92679 7.28679V7.28679M4.92679 7.28679L9.92679 4.25649M9.92679 4.25649C11.2011 3.48421 12.7989 3.48421 14.0732 4.25649M9.92679 4.25649V4.25649C11.2011 3.48421 12.7989 3.48421 14.0732 4.25649V4.25649M14.0732 4.25649L19.0732 7.28679" fill="none" stroke-width="1.5" stroke-linecap="round" stroke-linejoin="round"/>
</svg>