<svg xmlns="http://www.w3.org/2000/svg" width="24" viewBox="0 0 24 24" fill="none">
  <path d="M12 14.5C15.3137 14.5 18 11.8137 18 8.50003C18 5.18632 15.3137 2.50003 12 2.50003C8.68629 2.50003 6 5.18632 6 8.50003C6 11.8137 8.68629 14.5 12 14.5Z" stroke-width="1.5" stroke-linecap="round" stroke-linejoin="round"/>
  <path d="M16 21.5C19.3137 21.5 22 18.8137 22 15.5C22 12.1863 19.3137 9.50003 16 9.50003C12.6863 9.50003 10 12.1863 10 15.5C10 18.8137 12.6863 21.5 16 21.5Z" stroke-width="1.5" stroke-linecap="round" stroke-linejoin="round"/>
  <path d="M8 21.5C11.3137 21.5 14 18.8137 14 15.5C14 12.1863 11.3137 9.50003 8 9.50003C4.68629 9.50003 2 12.1863 2 15.5C2 18.8137 4.68629 21.5 8 21.5Z" stroke-width="1.5" stroke-linecap="round" stroke-linejoin="round"/>
</svg>