<svg width="20" viewBox="0 0 20 20" fill="none" xmlns="http://www.w3.org/2000/svg">
<g clip-path="url(#clip0_457_8313)">
<path d="M9.99969 12.4995C11.3804 12.4995 12.4997 11.3802 12.4997 9.99951C12.4997 8.6188 11.3804 7.49951 9.99969 7.49951C8.61898 7.49951 7.49969 8.6188 7.49969 9.99951C7.49969 11.3802 8.61898 12.4995 9.99969 12.4995Z" stroke-miterlimit="1.5" stroke-linecap="round" stroke-linejoin="round"/>
<path d="M10.8333 7.49992C10.8333 7.49992 11.6667 5.83325 11.6667 4.16659C11.6667 2.49992 10 0.833252 10 0.833252C10 0.833252 8.33334 2.49992 8.33334 4.16659C8.33334 5.83325 9.16668 7.49992 9.16668 7.49992" stroke-miterlimit="1.5" stroke-linecap="round" stroke-linejoin="round"/>
<path d="M7.50001 9.16675C7.50001 9.16675 5.83334 8.33341 4.16668 8.33341C2.50001 8.33341 0.833344 10.0001 0.833344 10.0001C0.833344 10.0001 2.50001 11.6667 4.16668 11.6667C5.83334 11.6667 7.50001 10.8334 7.50001 10.8334" stroke-miterlimit="1.5" stroke-linecap="round" stroke-linejoin="round"/>
<path d="M10.8333 12.5001C10.8333 12.5001 11.6667 14.1667 11.6667 15.8334C11.6667 17.5001 10 19.1667 10 19.1667C10 19.1667 8.33334 17.5001 8.33334 15.8334C8.33334 14.1667 9.16668 12.5001 9.16668 12.5001" stroke-miterlimit="1.5" stroke-linecap="round" stroke-linejoin="round"/>
<path d="M12.5 9.16675C12.5 9.16675 14.1667 8.33341 15.8333 8.33341C17.5 8.33341 19.1667 10.0001 19.1667 10.0001C19.1667 10.0001 17.5 11.6667 15.8333 11.6667C14.1667 11.6667 12.5 10.8334 12.5 10.8334" stroke-miterlimit="1.5" stroke-linecap="round" stroke-linejoin="round"/>
<path d="M8.8215 7.64306C8.8215 7.64306 8.23225 5.87529 7.05374 4.69678C5.87522 3.51827 3.5182 3.51827 3.5182 3.51827C3.5182 3.51827 3.5182 5.87529 4.69671 7.0538C5.87522 8.23231 7.64299 8.82157 7.64299 8.82157" stroke-miterlimit="1.5" stroke-linecap="round" stroke-linejoin="round"/>
<path d="M7.64293 11.1786C7.64293 11.1786 5.87517 11.7678 4.69666 12.9464C3.51814 14.1249 3.51814 16.4819 3.51814 16.4819C3.51814 16.4819 5.87517 16.4819 7.05368 15.3034C8.23219 14.1249 8.82144 12.3571 8.82144 12.3571" stroke-miterlimit="1.5" stroke-linecap="round" stroke-linejoin="round"/>
<path d="M12.3571 11.1786C12.3571 11.1786 14.1248 11.7678 15.3033 12.9464C16.4819 14.1249 16.4819 16.4819 16.4819 16.4819C16.4819 16.4819 14.1248 16.4819 12.9463 15.3034C11.7678 14.1249 11.1786 12.3571 11.1786 12.3571" stroke-miterlimit="1.5" stroke-linecap="round" stroke-linejoin="round"/>
<path d="M11.1785 7.64306C11.1785 7.64306 11.7678 5.87529 12.9463 4.69678C14.1248 3.51827 16.4818 3.51827 16.4818 3.51827C16.4818 3.51827 16.4818 5.87529 15.3033 7.0538C14.1248 8.23231 12.357 8.82157 12.357 8.82157" stroke-miterlimit="1.5" stroke-linecap="round" stroke-linejoin="round"/>
</g>
<defs>
<clipPath id="clip0_457_8313">
<rect width="20" height="20" fill="white"/>
</clipPath>
</defs>
</svg>
