<svg width="24" height="24" viewBox="0 0 24 24" fill="none" xmlns="http://www.w3.org/2000/svg">
<path d="M2.52148 18.5C2.03809 18.5 1.73047 18.1836 1.73047 17.6826V6.63477C1.73047 6.13379 2.03809 5.81738 2.52148 5.81738H8.96387C9.41211 5.81738 9.71973 6.10742 9.71973 6.5293C9.71973 6.95117 9.41211 7.24121 8.96387 7.24121H3.3125V11.3105H8.64746C9.08691 11.3105 9.39453 11.5918 9.39453 12.0137C9.39453 12.4268 9.08691 12.7168 8.64746 12.7168H3.3125V17.0762H8.96387C9.41211 17.0762 9.71973 17.3662 9.71973 17.7881C9.71973 18.21 9.41211 18.5 8.96387 18.5H2.52148ZM12.4619 18.623C11.9785 18.623 11.6797 18.3066 11.6797 17.8057V6.61719C11.6797 6.06348 12.04 5.69434 12.585 5.69434C13.0068 5.69434 13.2178 5.81738 13.499 6.22168L20.1611 15.7754H20.2402V6.51172C20.2402 6.01074 20.5391 5.69434 21.0225 5.69434C21.5059 5.69434 21.8047 6.01074 21.8047 6.51172V17.7617C21.8047 18.2979 21.4707 18.623 20.9082 18.623C20.4775 18.623 20.2754 18.5088 19.9941 18.1045L13.3232 8.57715H13.2441V17.8057C13.2441 18.3066 12.9453 18.623 12.4619 18.623Z" fill="currentColor" stroke="none" />
</svg>
