<svg width="24" height="24" viewBox="0 0 24 24" fill="none" xmlns="http://www.w3.org/2000/svg">
<path d="M2.02148 18.623C1.53809 18.623 1.23047 18.3066 1.23047 17.8057V6.51172C1.23047 6.01074 1.53809 5.69434 2.02148 5.69434C2.50488 5.69434 2.8125 6.01074 2.8125 6.51172V12.0049H2.90039L8.55176 5.99316C8.75391 5.77344 8.92969 5.68555 9.17578 5.68555C9.60645 5.68555 9.90527 6.00195 9.90527 6.40625C9.90527 6.59082 9.83496 6.75781 9.69434 6.90723L5.32617 11.4336L10.1865 17.2871C10.3447 17.4805 10.415 17.6826 10.415 17.876C10.415 18.2979 10.0811 18.6318 9.65039 18.6318C9.36035 18.6318 9.16699 18.5264 8.93848 18.2451L4.22754 12.5586L2.8125 14.0703V17.8057C2.8125 18.3066 2.50488 18.623 2.02148 18.623ZM17.1299 18.7109C13.5352 18.7109 11.2852 16.1885 11.2852 12.1631C11.2852 8.1377 13.5352 5.60645 17.1299 5.60645C20.7246 5.60645 22.9746 8.1377 22.9746 12.1631C22.9746 16.1885 20.7246 18.7109 17.1299 18.7109ZM17.1299 17.252C19.7227 17.252 21.3486 15.2832 21.3486 12.1631C21.3486 9.03418 19.7227 7.06543 17.1299 7.06543C14.5371 7.06543 12.9111 9.03418 12.9111 12.1631C12.9111 15.2832 14.5371 17.252 17.1299 17.252Z" fill="currentColor" stroke="none" />
</svg>
