<svg width="24" height="24" viewBox="0 0 24 24" fill="none" xmlns="http://www.w3.org/2000/svg">
<path d="M2.38184 18.5C1.54688 18.5 1.05469 17.9902 1.05469 17.1113V7.19727C1.05469 6.32715 1.54688 5.81738 2.38184 5.81738H8.41113C9.14062 5.81738 9.61523 6.23047 9.61523 6.91602C9.61523 7.60156 9.13184 8.01465 8.41113 8.01465H3.70898V11.0645H8.18262C8.8418 11.0645 9.29004 11.4512 9.29004 12.084C9.29004 12.7168 8.85059 13.1035 8.18262 13.1035H3.70898V16.3027H8.41113C9.13184 16.3027 9.61523 16.7158 9.61523 17.4014C9.61523 18.0869 9.14062 18.5 8.41113 18.5H2.38184ZM12.6475 18.667C11.8477 18.667 11.373 18.1836 11.373 17.3398V6.96875C11.373 6.125 11.8652 5.6416 12.709 5.6416C13.2539 5.6416 13.623 5.86133 14.0273 6.41504L19.5117 14.0791H19.582V6.97754C19.582 6.125 20.0566 5.6416 20.8564 5.6416C21.6562 5.6416 22.1221 6.125 22.1221 6.97754V17.375C22.1221 18.2012 21.6562 18.667 20.8213 18.667C20.25 18.667 19.8984 18.4648 19.4941 17.9023L13.9922 10.1943H13.9131V17.3398C13.9131 18.1836 13.4385 18.667 12.6475 18.667Z" fill="currentColor" stroke="none" />
</svg>
