<svg width="24" height="24" viewBox="0 0 24 24" fill="none" xmlns="http://www.w3.org/2000/svg">
<path d="M1.88184 18.667C1.04688 18.667 0.554688 18.1572 0.554688 17.2871V7.03027C0.554688 6.15137 1.04688 5.6416 1.88184 5.6416C2.7168 5.6416 3.20898 6.15137 3.20898 7.03027V11.4248H3.28809L8.06055 6.21289C8.42969 5.80859 8.76367 5.6416 9.20312 5.6416C9.90625 5.6416 10.4512 6.17773 10.4512 6.86328C10.4512 7.23242 10.3193 7.52246 9.98535 7.87402L6.4873 11.5391L10.293 16.1621C10.6885 16.6543 10.8643 17.0322 10.8643 17.3926C10.8643 18.1133 10.3105 18.6758 9.58105 18.6758C9.03613 18.6758 8.66699 18.4736 8.25391 17.9463L4.47461 13.2969L3.20898 14.624V17.2871C3.20898 18.1572 2.7168 18.667 1.88184 18.667ZM17.6494 18.7109C13.8877 18.7109 11.5322 16.1973 11.5322 12.1631C11.5322 8.12012 13.8877 5.59766 17.6494 5.59766C21.4023 5.59766 23.7666 8.12012 23.7666 12.1631C23.7666 16.1973 21.4023 18.7109 17.6494 18.7109ZM17.6494 16.4961C19.7236 16.4961 21.0508 14.8174 21.0508 12.1631C21.0508 9.5 19.7236 7.8125 17.6494 7.8125C15.5752 7.8125 14.2393 9.5 14.2393 12.1631C14.2393 14.8174 15.5664 16.4961 17.6494 16.4961Z" fill="currentColor" stroke="none" />
</svg>
