<svg width="24" height="24" viewBox="0 0 24 24" fill="none" xmlns="http://www.w3.org/2000/svg">
<path d="M12.837 16.5834H19.4131M12.837 16.5834L11.0833 20.25M12.837 16.5834L15.4634 11.0916C15.6751 10.6491 15.7809 10.4278 15.9257 10.3579C16.0516 10.2971 16.1984 10.2971 16.3243 10.3579C16.4691 10.4278 16.5749 10.6491 16.7866 11.0916L19.4131 16.5834M19.4131 16.5834L21.1667 20.25" stroke="currentColor" fill="none" stroke-width="1.5" stroke-linecap="round" stroke-linejoin="round"/>
<path d="M2.83334 5.58333H8.33334M8.33334 5.58333H11.5417M8.33334 5.58333V3.75M11.5417 5.58333H13.8333M11.5417 5.58333C11.0869 8.29418 10.0315 10.7498 8.4851 12.8107M10.1667 13.8333C9.60519 13.5811 9.03244 13.2302 8.4851 12.8107M8.4851 12.8107C7.24528 11.8604 6.13588 10.5578 5.58334 9.25M8.4851 12.8107C7.01413 14.771 5.09883 16.3742 2.83334 17.5" stroke="currentColor" fill="none" stroke-width="1.5" stroke-linecap="round" stroke-linejoin="round"/>
</svg>
