<svg
  width="154"
  viewBox="0 0 154 105"
  fill="#959595"
  xmlns="http://www.w3.org/2000/svg"
>
  <path d="M62.7693 37.5557H52.146C37.1481 37.5557 24.9902 49.7136 24.9902 64.7114V84.4113C24.9902 92.1373 31.2554 98.3984 38.9773 98.3984H95.6337C103.36 98.3984 109.621 92.1332 109.621 84.4113C109.625 58.5322 88.6484 37.5557 62.7693 37.5557Z" />
  <path d="M87.8379 48.0034C92.6812 48.0034 96.6075 46.6586 96.6075 44.9998C96.6075 43.3409 92.6812 41.9961 87.8379 41.9961C82.9946 41.9961 79.0684 43.3409 79.0684 44.9998C79.0684 46.6586 82.9946 48.0034 87.8379 48.0034Z" />
  <path d="M136.791 77.2081C137.459 72.4108 135.459 68.1684 132.325 67.7324C129.191 67.2964 126.109 70.8319 125.442 75.6292C124.774 80.4265 126.774 84.6689 129.908 85.1049C133.042 85.5409 136.124 82.0054 136.791 77.2081Z" />
  <path d="M77.3667 104.569H36.9727C22.515 104.569 10.7949 92.8493 10.7949 78.3916C10.7949 63.9339 22.515 52.2139 36.9727 52.2139H77.3667C86.7706 52.2139 94.3984 59.8376 94.3984 69.2456V87.5418C94.3984 96.9456 86.7706 104.569 77.3667 104.569Z" />
  <path d="M140.767 76.4199H83.9424V95.6246H146.897C150.277 95.6246 153.014 92.8869 153.014 89.5068V88.6719C153.014 81.9035 147.531 76.4199 140.767 76.4199Z" />
  <path d="M117.666 85.3691H58.5996V104.574H119.884C124.185 104.574 127.672 101.087 127.672 96.7864V95.3746C127.672 89.846 123.191 85.3691 117.666 85.3691Z" />
  <path d="M116.385 47.7903L99.5665 24.3503C98.7399 22.7829 96.4646 22.8852 95.7812 24.5221L90.2567 48.9689C89.6634 50.3889 90.7478 51.9398 92.2824 51.8702L103.937 51.3464L97.4754 49.8528C96.3746 49.5991 95.6871 48.4983 95.9408 47.3975C96.1945 46.2967 97.2953 45.6133 98.3961 45.8629L112.26 49.063C113.153 49.2676 113.762 50.0288 113.832 50.8963L114.626 50.8595C116.16 50.794 117.102 49.153 116.385 47.7903Z" />
  <path d="M142.964 33.2016L120.637 46.9022C119.327 47.7043 119.299 49.599 120.588 50.442L122.507 51.6983C122.826 51.6082 123.166 51.5878 123.51 51.6655L137.374 54.8656C138.475 55.1194 139.162 56.2202 138.909 57.321C138.692 58.2662 137.849 58.9087 136.916 58.9087C136.764 58.9087 136.609 58.8924 136.453 58.8555L131.805 57.7834L139.305 62.6899C140.59 63.5329 142.317 62.7472 142.526 61.2249L146.135 35.2804C146.381 33.5208 144.474 32.2726 142.964 33.2016Z" />
  <path d="M21.4589 96.0047C18.7785 96.0047 16.1554 94.6911 14.5922 92.2767C13.7124 90.9221 -6.80995 58.7862 2.34837 30.7547C6.85797 16.9476 17.4527 6.78259 33.846 0.53791C38.0691 -1.07032 42.7997 1.04944 44.4079 5.27258C46.0162 9.49572 43.9005 14.2263 39.6733 15.8345C27.986 20.2909 20.8696 26.818 17.9233 35.7962C11.167 56.3636 28.1619 83.1183 28.3338 83.3843C30.7768 87.1819 29.6883 92.2439 25.8989 94.6952C24.5199 95.5791 22.9812 96.0047 21.4589 96.0047Z" />
  <path d="M120.203 37.9778C105.508 34.5854 91.4844 40.9774 88.8777 52.2596C86.2751 63.5418 96.0758 75.4337 110.771 78.8302C125.466 82.2226 139.49 75.8306 142.097 64.5484C144.703 53.2663 134.898 41.3703 120.203 37.9778ZM95.9449 47.4021C96.1986 46.3013 97.2994 45.618 98.4002 45.8676L112.265 49.0677C113.365 49.3214 114.053 50.4222 113.799 51.523C113.582 52.4683 112.739 53.1108 111.806 53.1108C111.655 53.1108 111.499 53.0944 111.344 53.0576L97.4795 49.8575C96.3746 49.5997 95.6912 48.5029 95.9449 47.4021ZM121.112 65.9111C120.76 66.1485 120.363 66.2631 119.97 66.2631C119.311 66.2631 118.669 65.948 118.272 65.3628L115.808 61.7085L112.158 64.172C111.221 64.8062 109.948 64.5566 109.318 63.6195C108.688 62.6824 108.934 61.4097 109.871 60.7795L116.913 56.0244L121.664 63.0671C122.295 64.0042 122.049 65.2768 121.112 65.9111ZM121.055 53.1967C121.308 52.0959 122.409 51.4125 123.51 51.6621L137.374 54.8622C138.475 55.1159 139.163 56.2167 138.909 57.3175C138.692 58.2628 137.849 58.9053 136.916 58.9053C136.765 58.9053 136.609 58.8889 136.454 58.8521L122.589 55.652C121.488 55.3983 120.801 54.2975 121.055 53.1967Z" />
</svg>