<svg width="26" viewBox="0 0 26 26" fill="none" xmlns="http://www.w3.org/2000/svg">
<path d="M15.1665 12.9974C15.1665 10.2981 12.6565 7.58333 9.59508 7.58333C9.23245 7.58333 8.03713 7.58333 7.73793 7.58333C4.66092 7.58333 2.1665 10.0073 2.1665 12.9974C2.1665 15.574 4.01871 17.7303 6.49984 18.2774C6.89802 18.3652 7.31241 18.4115 7.73793 18.4115"  stroke-width="1.5" stroke-linecap="round" stroke-linejoin="round"/>
<path d="M10.8335 12.9974C10.8335 15.6968 13.3435 18.4115 16.4049 18.4115C16.7676 18.4115 17.9629 18.4115 18.2621 18.4115C21.3391 18.4115 23.8335 15.9875 23.8335 12.9974C23.8335 10.4208 21.9813 8.26459 19.5002 7.71749C19.102 7.62969 18.6876 7.58333 18.2621 7.58333" stroke-width="1.5" stroke-linecap="round" stroke-linejoin="round"/>
</svg>
