<svg width="83" viewBox="0 0 83 36" fill="none" xmlns="http://www.w3.org/2000/svg">
<rect width="83" height="36" rx="18" fill="white"/>
<path d="M20.986 4.66699C13.626 4.66699 7.66602 10.6403 7.66602 18.0003C7.66602 25.3603 13.626 31.3337 20.986 31.3337C28.3593 31.3337 34.3327 25.3603 34.3327 18.0003C34.3327 10.6403 28.3593 4.66699 20.986 4.66699ZM30.226 12.667H26.2927C25.866 11.0003 25.2527 9.40033 24.4527 7.92033C26.906 8.76033 28.946 10.467 30.226 12.667ZM20.9993 7.38699C22.106 8.98699 22.9727 10.7603 23.546 12.667H18.4527C19.026 10.7603 19.8927 8.98699 20.9993 7.38699ZM10.6793 20.667C10.466 19.8137 10.3327 18.9203 10.3327 18.0003C10.3327 17.0803 10.466 16.187 10.6793 15.3337H15.186C15.0793 16.2137 14.9993 17.0937 14.9993 18.0003C14.9993 18.907 15.0793 19.787 15.186 20.667H10.6793ZM11.7727 23.3337H15.706C16.1327 25.0003 16.746 26.6003 17.546 28.0803C15.0927 27.2403 13.0527 25.547 11.7727 23.3337ZM15.706 12.667H11.7727C13.0527 10.4537 15.0927 8.76033 17.546 7.92033C16.746 9.40033 16.1327 11.0003 15.706 12.667ZM20.9993 28.6137C19.8927 27.0137 19.026 25.2403 18.4527 23.3337H23.546C22.9727 25.2403 22.106 27.0137 20.9993 28.6137ZM24.1193 20.667H17.8793C17.7593 19.787 17.666 18.907 17.666 18.0003C17.666 17.0937 17.7593 16.2003 17.8793 15.3337H24.1193C24.2393 16.2003 24.3327 17.0937 24.3327 18.0003C24.3327 18.907 24.2393 19.787 24.1193 20.667ZM24.4527 28.0803C25.2527 26.6003 25.866 25.0003 26.2927 23.3337H30.226C28.946 25.5337 26.906 27.2403 24.4527 28.0803ZM26.8127 20.667C26.9193 19.787 26.9993 18.907 26.9993 18.0003C26.9993 17.0937 26.9193 16.2137 26.8127 15.3337H31.3193C31.5327 16.187 31.666 17.0803 31.666 18.0003C31.666 18.9203 31.5327 19.8137 31.3193 20.667H26.8127Z" fill="#EB6263"/>
<path d="M47.416 24.6598V11.3398H50.08V17.1178H50.116L54.544 11.3398H57.478L53.392 16.5778L58.18 24.6598H55.282L51.826 18.6838L50.08 20.9158V24.6598H47.416Z" fill="#EB6263"/>
<path d="M59.3779 24.6598V11.3398H64.0039C66.7939 11.3398 69.0079 12.3118 69.0079 15.3718C69.0079 18.3418 66.7939 19.6378 64.0039 19.6378H62.0419V24.6598H59.3779ZM62.0419 17.5318H63.7519C65.4799 17.5318 66.4159 16.7938 66.4159 15.3718C66.4159 13.9498 65.4799 13.4638 63.7519 13.4638H62.0419V17.5318ZM66.6139 24.6598L63.5179 18.9538L65.3719 17.2798L69.5839 24.6598H66.6139Z" fill="#EB6263"/>
</svg>
