<svg width="24" height="24" viewBox="0 0 24 24" fill="none" xmlns="http://www.w3.org/2000/svg">
<path d="M12 3H12.393C11.1084 4.19371 10.2826 5.79985 10.0593 7.53923C9.83602 9.2786 10.2293 11.0412 11.1708 12.5207C12.1122 14.0002 13.5424 15.103 15.2126 15.6375C16.8829 16.1719 18.6876 16.1042 20.313 15.446C19.6878 16.9505 18.6658 18.257 17.3562 19.2263C16.0466 20.1955 14.4985 20.791 12.8769 20.9494C11.2554 21.1077 9.62129 20.823 8.14892 20.1254C6.67654 19.4279 5.42114 18.3437 4.51661 16.9886C3.61209 15.6335 3.09238 14.0583 3.01291 12.431C2.93345 10.8037 3.29721 9.1853 4.0654 7.74852C4.83359 6.31174 5.97739 5.11043 7.37479 4.27274C8.77219 3.43505 10.3708 2.9924 12 2.992V3Z" fill="currentColor" stroke="none"/>
<path d="M12 3C12.132 3 12.263 3 12.393 3M12 3V2.992C10.3708 2.9924 8.77219 3.43505 7.37479 4.27274C5.97739 5.11043 4.83359 6.31174 4.0654 7.74852C3.29721 9.1853 2.93345 10.8037 3.01291 12.431C3.09238 14.0583 3.61209 15.6335 4.51661 16.9886C5.42114 18.3437 6.67654 19.4279 8.14892 20.1254C9.62129 20.823 11.2554 21.1077 12.8769 20.9494C14.4985 20.791 16.0466 20.1955 17.3562 19.2263C18.6658 18.257 19.6878 16.9505 20.313 15.446C18.6876 16.1042 16.8829 16.1719 15.2126 15.6375C13.5424 15.103 12.1122 14.0002 11.1708 12.5207C10.2293 11.0412 9.83602 9.2786 10.0593 7.53923C10.2826 5.79985 11.1084 4.19371 12.393 3M12 3H12.393" stroke="currentColor" fill="none" stroke-width="1.5" stroke-linecap="round" stroke-linejoin="round"/>
</svg>
