<svg width="24" height="24" viewBox="0 0 24 24" fill="none" xmlns="http://www.w3.org/2000/svg">
<path d="M12 1.25C17.9371 1.25 22.75 6.06294 22.75 12C22.75 14.0711 21.0711 15.75 19 15.75H18.5C18.0117 15.75 17.84 15.7519 17.7061 15.7695C16.6966 15.9026 15.9026 16.6966 15.7695 17.7061C15.7519 17.84 15.75 18.0117 15.75 18.5V19C15.75 21.0711 14.0711 22.75 12 22.75C6.06294 22.75 1.25 17.9371 1.25 12C1.25 6.06294 6.06294 1.25 12 1.25ZM7 10.25C6.0335 10.25 5.25 11.0335 5.25 12C5.25 12.9665 6.0335 13.75 7 13.75C7.9665 13.75 8.75 12.9665 8.75 12C8.75 11.0335 7.9665 10.25 7 10.25ZM7 11.75C7.13807 11.75 7.25 11.8619 7.25 12C7.25 12.1381 7.13807 12.25 7 12.25C6.86193 12.25 6.75 12.1381 6.75 12C6.75 11.8619 6.86193 11.75 7 11.75ZM16 6.25C15.0335 6.25 14.25 7.0335 14.25 8C14.25 8.9665 15.0335 9.75 16 9.75C16.9665 9.75 17.75 8.9665 17.75 8C17.75 7.0335 16.9665 6.25 16 6.25ZM10 5.25C9.0335 5.25 8.25 6.0335 8.25 7C8.25 7.9665 9.0335 8.75 10 8.75C10.9665 8.75 11.75 7.9665 11.75 7C11.75 6.0335 10.9665 5.25 10 5.25ZM16 7.75C16.1381 7.75 16.25 7.86193 16.25 8C16.25 8.13807 16.1381 8.25 16 8.25C15.8619 8.25 15.75 8.13807 15.75 8C15.75 7.86193 15.8619 7.75 16 7.75ZM10 6.75C10.1381 6.75 10.25 6.86193 10.25 7C10.25 7.13807 10.1381 7.25 10 7.25C9.86193 7.25 9.75 7.13807 9.75 7C9.75 6.86193 9.86193 6.75 10 6.75Z" fill="currentColor" stroke="none" />
</svg>
