<svg xmlns="http://www.w3.org/2000/svg" width="20" viewBox="0 0 20 20" fill="none" stroke="inherit">
  <path d="M5.83333 15V14.1667C5.83333 11.8655 7.69881 10 10 10V10C12.3012 10 14.1667 11.8655 14.1667 14.1667V15" stroke-linecap="round" stroke-linejoin="round"/>
  <path d="M0.833328 15.0001V14.1667C0.833328 12.786 1.95262 11.6667 3.33333 11.6667V11.6667" stroke-linecap="round" stroke-linejoin="round"/>
  <path d="M19.1667 15.0001V14.1667C19.1667 12.786 18.0474 11.6667 16.6667 11.6667V11.6667" stroke-linecap="round" stroke-linejoin="round"/>
  <path d="M10 10C11.3807 10 12.5 8.88071 12.5 7.5C12.5 6.11929 11.3807 5 10 5C8.61929 5 7.5 6.11929 7.5 7.5C7.5 8.88071 8.61929 10 10 10Z" stroke-linecap="round" stroke-linejoin="round"/>
  <path d="M3.33334 11.6666C4.25381 11.6666 5.00001 10.9204 5.00001 9.99992C5.00001 9.07944 4.25381 8.33325 3.33334 8.33325C2.41286 8.33325 1.66667 9.07944 1.66667 9.99992C1.66667 10.9204 2.41286 11.6666 3.33334 11.6666Z" stroke-linecap="round" stroke-linejoin="round"/>
  <path d="M16.6667 11.6666C17.5871 11.6666 18.3333 10.9204 18.3333 9.99992C18.3333 9.07944 17.5871 8.33325 16.6667 8.33325C15.7462 8.33325 15 9.07944 15 9.99992C15 10.9204 15.7462 11.6666 16.6667 11.6666Z" stroke-linecap="round" stroke-linejoin="round"/>
</svg>