<svg width="24" height="24" viewBox="0 0 24 24" fill="none" xmlns="http://www.w3.org/2000/svg">
<path d="M12 2.25C13.2804 2.25 14.5485 2.5022 15.7314 2.99219C16.9143 3.48217 17.9892 4.20016 18.8945 5.10547C19.7998 6.01078 20.5178 7.08573 21.0078 8.26855C21.4978 9.45148 21.75 10.7196 21.75 12L21.7383 12.4795C21.6833 13.5961 21.4365 14.6964 21.0078 15.7314C20.5178 16.9143 19.7998 17.9892 18.8945 18.8945C17.9892 19.7998 16.9143 20.5178 15.7314 21.0078C14.6964 21.4365 13.5961 21.6833 12.4795 21.7383L12 21.75C10.7196 21.75 9.45148 21.4978 8.26855 21.0078C7.08573 20.5178 6.01078 19.7998 5.10547 18.8945C4.20016 17.9892 3.48217 16.9143 2.99219 15.7314C2.56346 14.6964 2.3167 13.5961 2.26172 12.4795L2.25 12C2.25 10.7196 2.5022 9.45148 2.99219 8.26855C3.48217 7.08573 4.20016 6.01078 5.10547 5.10547C6.01078 4.20016 7.08573 3.48217 8.26855 2.99219C9.45148 2.5022 10.7196 2.25 12 2.25ZM13 17.25C12.5858 17.25 12.25 17.5858 12.25 18C12.25 18.4142 12.5858 18.75 13 18.75H14C14.4142 18.75 14.75 18.4142 14.75 18C14.75 17.5858 14.4142 17.25 14 17.25H13ZM13 14.25C12.5858 14.25 12.25 14.5858 12.25 15C12.25 15.4142 12.5858 15.75 13 15.75H17C17.4142 15.75 17.75 15.4142 17.75 15C17.75 14.5858 17.4142 14.25 17 14.25H13ZM13 11.25C12.5858 11.25 12.25 11.5858 12.25 12C12.25 12.4142 12.5858 12.75 13 12.75H18C18.4142 12.75 18.75 12.4142 18.75 12C18.75 11.5858 18.4142 11.25 18 11.25H13ZM13 8.25C12.5858 8.25 12.25 8.58579 12.25 9C12.25 9.41421 12.5858 9.75 13 9.75H17C17.4142 9.75 17.75 9.41421 17.75 9C17.75 8.58579 17.4142 8.25 17 8.25H13ZM13 5.25C12.5858 5.25 12.25 5.58579 12.25 6C12.25 6.41421 12.5858 6.75 13 6.75H14C14.4142 6.75 14.75 6.41421 14.75 6C14.75 5.58579 14.4142 5.25 14 5.25H13Z" fill="currentColor" stroke="none" />
</svg>
