<svg width="57" height="24" viewBox="0 0 57 24" fill="none" xmlns="http://www.w3.org/2000/svg">
<rect x="0.75" y="0.75" width="55.5" height="22.5" rx="5.25" stroke="#B3B3B3" stroke-width="1.5"/>
<path d="M10.6731 19C9.75643 19 9.09314 18.8165 8.68321 18.4496C8.27898 18.077 8.06263 17.4664 8.03416 16.6179C8.02847 16.2912 8.02277 15.9873 8.01708 15.7064C8.01708 15.4197 8.01993 15.1331 8.02562 14.8464C8.03131 14.5541 8.03985 14.2387 8.05124 13.9005H9.35789C9.33511 14.4107 9.32088 14.9009 9.31519 15.371C9.31519 15.8354 9.32942 16.3084 9.35789 16.7899C9.37497 17.174 9.4803 17.4435 9.67387 17.5983C9.87314 17.7473 10.2062 17.8219 10.6731 17.8219C11.1115 17.8219 11.4246 17.7473 11.6125 17.5983C11.8061 17.4435 11.9142 17.174 11.937 16.7899C11.9598 16.5434 11.9712 16.2768 11.9712 15.9902C11.9769 15.6978 11.974 15.4083 11.9626 15.1216C11.9569 14.835 11.9484 14.5655 11.937 14.3133C11.9256 13.8546 11.8345 13.5106 11.6637 13.2813C11.4929 13.052 11.2139 12.8886 10.8268 12.7912L9.87884 12.559C9.41197 12.4443 9.04475 12.2781 8.77716 12.0602C8.50956 11.8366 8.31883 11.5385 8.20496 11.1658C8.0911 10.7932 8.02562 10.3202 8.00854 9.74693C8.00285 9.37428 8 8.98731 8 8.586C8.00569 8.17895 8.01139 7.76904 8.01708 7.35627C8.03416 6.7887 8.1338 6.33292 8.31599 5.98894C8.49818 5.64496 8.78 5.39558 9.16146 5.24079C9.54862 5.08026 10.0525 5 10.6731 5C11.5612 5 12.2046 5.18346 12.6031 5.55037C13.0017 5.91728 13.2152 6.52498 13.2437 7.37346C13.255 7.72891 13.2579 8.12162 13.2522 8.5516C13.2465 8.97584 13.238 9.42301 13.2266 9.89312H11.9114C11.9285 9.36568 11.937 8.88698 11.937 8.457C11.9427 8.02703 11.937 7.60852 11.9199 7.20147C11.9029 6.81736 11.8004 6.55078 11.6125 6.40172C11.4246 6.24693 11.1058 6.16953 10.656 6.16953C10.2062 6.16953 9.88453 6.24693 9.69095 6.40172C9.50307 6.55078 9.39774 6.81736 9.37497 7.20147C9.35219 7.63718 9.34081 8.05856 9.34081 8.4656C9.34081 8.87265 9.35219 9.29975 9.37497 9.74693C9.38635 10.24 9.45468 10.604 9.57993 10.8391C9.70519 11.0684 9.92154 11.2203 10.229 11.2948L11.1257 11.5012C11.6609 11.6274 12.0822 11.8022 12.3896 12.0258C12.7028 12.2494 12.9277 12.5475 13.0643 12.9201C13.2067 13.2928 13.2864 13.7572 13.3034 14.3133C13.3148 14.5541 13.3205 14.8092 13.3205 15.0786C13.3205 15.3423 13.3177 15.6061 13.312 15.8698C13.3063 16.1335 13.3006 16.3829 13.2949 16.6179C13.2607 17.4664 13.0415 18.077 12.6373 18.4496C12.2388 18.8165 11.584 19 10.6731 19Z" fill="#B3B3B3"/>
<path d="M16.5123 18.8796V14.1069H16.0767L14.437 5.12039H15.812L16.4098 9.00737L16.9393 12.9373H17.4602L17.9641 9.00737L18.5705 5.12039H19.9625L18.3057 14.1069H17.8702V18.8796H16.5123Z" fill="#B3B3B3"/>
<path d="M23.7502 19C22.8336 19 22.1703 18.8165 21.7603 18.4496C21.3561 18.077 21.1398 17.4664 21.1113 16.6179C21.1056 16.2912 21.0999 15.9873 21.0942 15.7064C21.0942 15.4197 21.0971 15.1331 21.1027 14.8464C21.1084 14.5541 21.117 14.2387 21.1284 13.9005H22.435C22.4122 14.4107 22.398 14.9009 22.3923 15.371C22.3923 15.8354 22.4065 16.3084 22.435 16.7899C22.4521 17.174 22.5574 17.4435 22.751 17.5983C22.9503 17.7473 23.2833 17.8219 23.7502 17.8219C24.1886 17.8219 24.5017 17.7473 24.6896 17.5983C24.8832 17.4435 24.9914 17.174 25.0141 16.7899C25.0369 16.5434 25.0483 16.2768 25.0483 15.9902C25.054 15.6978 25.0512 15.4083 25.0398 15.1216C25.0341 14.835 25.0255 14.5655 25.0141 14.3133C25.0028 13.8546 24.9117 13.5106 24.7409 13.2813C24.5701 13.052 24.2911 12.8886 23.9039 12.7912L22.956 12.559C22.4891 12.4443 22.1219 12.2781 21.8543 12.0602C21.5867 11.8366 21.396 11.5385 21.2821 11.1658C21.1682 10.7932 21.1027 10.3202 21.0857 9.74693C21.08 9.37428 21.0771 8.98731 21.0771 8.586C21.0828 8.17895 21.0885 7.76904 21.0942 7.35627C21.1113 6.7887 21.2109 6.33292 21.3931 5.98894C21.5753 5.64496 21.8571 5.39558 22.2386 5.24079C22.6257 5.08026 23.1296 5 23.7502 5C24.6384 5 25.2817 5.18346 25.6803 5.55037C26.0788 5.91728 26.2923 6.52498 26.3208 7.37346C26.3322 7.72891 26.335 8.12162 26.3293 8.5516C26.3236 8.97584 26.3151 9.42301 26.3037 9.89312H24.9885C25.0056 9.36568 25.0141 8.88698 25.0141 8.457C25.0198 8.02703 25.0141 7.60852 24.9971 7.20147C24.98 6.81736 24.8775 6.55078 24.6896 6.40172C24.5017 6.24693 24.1829 6.16953 23.7331 6.16953C23.2833 6.16953 22.9617 6.24693 22.7681 6.40172C22.5802 6.55078 22.4749 6.81736 22.4521 7.20147C22.4293 7.63718 22.4179 8.05856 22.4179 8.4656C22.4179 8.87265 22.4293 9.29975 22.4521 9.74693C22.4635 10.24 22.5318 10.604 22.6571 10.8391C22.7823 11.0684 22.9987 11.2203 23.3061 11.2948L24.2028 11.5012C24.738 11.6274 25.1593 11.8022 25.4668 12.0258C25.7799 12.2494 26.0048 12.5475 26.1414 12.9201C26.2838 13.2928 26.3635 13.7572 26.3806 14.3133C26.392 14.5541 26.3977 14.8092 26.3977 15.0786C26.3977 15.3423 26.3948 15.6061 26.3891 15.8698C26.3834 16.1335 26.3777 16.3829 26.372 16.6179C26.3379 17.4664 26.1187 18.077 25.7144 18.4496C25.3159 18.8165 24.6612 19 23.7502 19Z" fill="#B3B3B3"/>
<path d="M29.3674 18.8796V6.35012H27.2836V5.12039H32.792V6.35012H30.7167V18.8796H29.3674Z" fill="#B3B3B3"/>
<path d="M33.952 18.8796V5.12039H38.4868V6.35012H35.3099V11.3464H38.316V12.5762H35.3099V17.6499H38.4868V18.8796H33.952Z" fill="#B3B3B3"/>
<path d="M39.9901 18.8796V5.12039H42.9194L43.7307 10.7531L44.2687 17.5897H44.7385L45.268 10.7531L46.0878 5.12039H49V18.8796H47.625V14.5799L47.7958 6.35012H47.0699L46.1903 14.9324L45.5242 18.8194H43.4404L42.8169 14.9324L41.9287 6.35012H41.2114L41.3822 14.5799V18.8796H39.9901Z" fill="#B3B3B3"/>
</svg>
