<svg
width="24"
viewBox="0 0 30 30"
fill="white"
xmlns="http://www.w3.org/2000/svg"
>
<g clipPath="url(#clip0_1811_9)">
  <path
    d="M26.7857 0H3.21429C1.43973 0 0 1.43973 0 3.21429V26.7857C0 28.5603 1.43973 30 3.21429 30H26.7857C28.5603 30 30 28.5603 30 26.7857V3.21429C30 1.43973 28.5603 0 26.7857 0ZM8.50446 23.6049C8.13616 24.2478 7.3125 24.4621 6.67634 24.0937C6.03348 23.7254 5.8192 22.9018 6.1875 22.2656L7.14509 20.6116C8.22321 20.2835 9.10714 20.5379 9.79688 21.375L8.50446 23.6049ZM17.8058 19.9955H5.625C4.88839 19.9955 4.28571 19.3929 4.28571 18.6562C4.28571 17.9196 4.88839 17.317 5.625 17.317H9.04018L13.4196 9.73661L12.0469 7.36607C11.6786 6.72321 11.8996 5.90625 12.5357 5.53795C13.1786 5.16964 13.9955 5.39062 14.3638 6.02679L14.9598 7.05803L15.5558 6.02679C15.9241 5.38393 16.7478 5.16964 17.3839 5.53795C18.0268 5.90625 18.2411 6.72991 17.8728 7.36607L12.1272 17.317H16.2857C17.6384 17.317 18.3951 18.904 17.8058 19.9955ZM24.375 19.9955H22.433L23.7455 22.2656C24.1138 22.9085 23.8929 23.7254 23.2567 24.0937C22.6138 24.4621 21.7969 24.2411 21.4286 23.6049C19.2254 19.7946 17.5781 16.9286 16.4732 15.0268C15.3549 13.0848 16.1518 11.1429 16.9487 10.4866C17.8259 12.0067 19.1384 14.2835 20.8929 17.317H24.375C25.1116 17.317 25.7143 17.9196 25.7143 18.6562C25.7143 19.3996 25.1116 19.9955 24.375 19.9955Z"
  />
</g>
<defs>
  <clipPath id="clip0_1811_9">
    <rect width="30" height="30" />
  </clipPath>
</defs>
</svg>