<svg width="122" height="169" viewBox="0 0 122 169" fill="none" xmlns="http://www.w3.org/2000/svg">
<g style="mix-blend-mode:luminosity" opacity="0.5">
<path d="M100.466 92.4571C100.466 114.125 82.7963 131.691 60.9997 131.691C39.203 131.691 21.5338 114.125 21.5338 92.4571C21.5338 70.7887 60.9997 34.6436 60.9997 34.6436C60.9997 34.6436 72.9963 40.5671 78.997 53.3857C83.2331 62.4349 81.0655 75.4152 83.2331 78.2351C84.9604 80.4819 89.0401 66.0656 90.6027 68.3825C96.2643 76.7764 100.466 85.3873 100.466 92.4571Z" fill="#FF3069"/>
<path d="M36.4612 149.94L0.925079 141.687L3.4646 130.879L60.9993 144.241L36.4612 149.94Z" fill="#AA947D"/>
<path d="M85.5371 149.939L121.075 158.193L118.535 169L60.999 155.638L85.5371 149.939Z" fill="#836F5A"/>
<path d="M118.535 130.879L113.349 132.084L100.173 124.521L96.0554 131.612L101.622 134.807L0.925079 158.193L3.4646 169L121.075 141.687L118.535 130.879Z" fill="#AA947D"/>
<path d="M106.552 43.8485C106.552 49.5764 109.425 54.6342 113.813 57.6854C118.202 54.6342 121.075 49.5764 121.075 43.8485C121.075 38.1207 118.202 33.0629 113.813 30.0117C109.425 33.0626 106.552 38.1207 106.552 43.8485Z" fill="#FF3069"/>
<path opacity="0.28" d="M114.517 30.5312C116.754 33.3888 118.089 36.978 118.089 40.8799C118.089 46.6077 115.216 51.6655 110.828 54.7167C110.588 54.5498 110.355 54.3748 110.124 54.1962C111.171 55.5337 112.414 56.7119 113.813 57.6845C118.202 54.6333 121.075 49.5755 121.075 43.8476C121.075 38.4329 118.505 33.6192 114.517 30.5312Z" fill="#AB3018"/>
<path d="M0.925079 46.498C0.925079 52.2258 3.79784 57.2836 8.18659 60.3348C12.575 57.2836 15.4481 52.2258 15.4481 46.498C15.4481 40.7701 12.5753 35.7123 8.18659 32.6611C3.79784 35.712 0.925079 40.7701 0.925079 46.498Z" fill="#FF3069"/>
<path d="M40.6465 13.8368C40.6465 19.5647 43.5193 24.6224 47.908 27.6736C52.2964 24.6224 55.1695 19.5647 55.1695 13.8368C55.1695 8.10896 52.2968 3.0512 47.908 0C43.5193 3.0512 40.6465 8.10896 40.6465 13.8368Z" fill="#FF3069"/>
<path d="M78.997 99.2872C78.997 109.168 70.9395 117.179 60.9997 117.179C51.0598 117.179 43.0023 109.169 43.0023 99.2872C43.0023 89.4058 60.9997 72.9229 60.9997 72.9229C60.9997 72.9229 66.4703 75.6242 69.207 81.4699C71.1388 85.5966 70.1504 91.516 71.1388 92.8016C71.9264 93.8264 73.7871 87.252 74.4995 88.3086C77.0811 92.1363 78.997 96.0633 78.997 99.2872Z" fill="#FFB057"/>
<g opacity="0.36">
<path d="M76.9126 66.4977C77.8657 67.7373 79.535 63.9041 81.1024 60.6078C80.6753 58.1481 80.0261 55.7182 78.9973 53.5201C77.6226 50.5832 75.9319 48.013 74.1441 45.7881C76.3722 54.2472 75.0592 64.0864 76.9126 66.4977Z" fill="#AB3018"/>
<path d="M91.8345 70.3848C93.2897 74.0354 94.1447 77.5342 94.1447 80.7196C94.1447 102.388 76.4754 119.953 54.6788 119.953C41.9764 119.953 30.6773 113.986 23.4586 104.719C28.5981 120.451 43.4616 131.826 61 131.826C82.7963 131.826 100.466 114.26 100.466 92.5918C100.466 86.0455 96.8624 78.1779 91.8345 70.3848Z" fill="#AB3018"/>
</g>
<path opacity="0.28" d="M8.89002 33.1807C11.1274 36.0382 12.4624 39.6274 12.4624 43.5293C12.4624 49.2571 9.58964 54.3149 5.2009 57.3661C4.96125 57.1992 4.72781 57.0242 4.49747 56.8457C5.5445 58.1831 6.78733 59.3613 8.18659 60.3339C12.575 57.2827 15.4481 52.2249 15.4481 46.4971C15.4481 41.0823 12.8782 36.2686 8.89002 33.1807Z" fill="#AB3018"/>
<path opacity="0.28" d="M48.6114 0.520508C50.8488 3.37809 52.1838 6.96723 52.1838 10.8691C52.1838 16.597 49.3111 21.6547 44.9223 24.7059C44.6827 24.5391 44.4492 24.364 44.2189 24.1855C45.2659 25.523 46.5088 26.7012 47.908 27.6737C52.2964 24.6225 55.1695 19.5648 55.1695 13.8369C55.1692 8.42211 52.5996 3.60844 48.6114 0.520508Z" fill="#AB3018"/>
</g>
</svg>
