<svg width="15" viewBox="0 0 20 25" fill="none" xmlns="http://www.w3.org/2000/svg">
<path d="M13.4001 12.6318C12.4851 12.6318 11.7439 11.8905 11.7439 10.9755C11.7439 10.879 11.752 10.7845 11.7684 10.6926L7.80754 8.41183C7.51935 8.65521 7.14675 8.80209 6.74013 8.80209C5.82515 8.80209 5.08356 8.0605 5.08356 7.14585C5.08356 6.2312 5.82515 5.4896 6.74013 5.4896C7.6551 5.4896 8.3967 6.2312 8.3967 7.14585C8.3967 7.25118 8.38591 7.35423 8.36693 7.45433L12.3134 9.72655C12.6042 9.47303 12.9843 9.31928 13.4001 9.31928C14.3144 9.31928 15.056 10.0609 15.056 10.9755C15.056 11.8905 14.3144 12.6318 13.4001 12.6318ZM8.37642 14.8314C8.37642 15.746 7.63515 16.4876 6.72017 16.4876C5.80585 16.4876 5.06426 15.746 5.06426 14.8314C5.06426 13.9164 5.80585 13.1748 6.72017 13.1748C7.13137 13.1748 7.50691 13.325 7.79642 13.5729L10.684 11.9134C10.8073 12.2696 10.999 12.5942 11.2427 12.8716L8.34992 14.5343C8.36693 14.6308 8.37642 14.73 8.37642 14.8314ZM18.3355 4.72347L10.4707 0.229398C9.93518 -0.0764659 9.27765 -0.0764659 8.74215 0.229398L0.878009 4.72347C0.334978 5.03359 0 5.61129 0 6.23611V15.378C0 16.0002 0.332034 16.5756 0.87114 16.8867L14.41 24.7015L14.4122 19.1508L18.341 16.8867C18.8808 16.5756 19.2132 16.0002 19.2132 15.3773V6.23611C19.2132 5.61129 18.8782 5.03359 18.3355 4.72347Z" fill="white"/>
</svg>
