<svg
width="300"
viewBox="0 0 201 40"
fill="none"
xmlns="http://www.w3.org/2000/svg"
>
<path
  d="M10.0312 29H3.09766V2.33984H10.0312V29ZM42.2578 29H35.3242L22.5703 12.6719V29H15.6367V2.33984H22.5703L35.3242 18.6484V2.33984H42.2578V29ZM63.1367 8.14062H54.7969V12.6523H62.3945V18.4531H54.7969V29H47.8633V2.33984H63.1367V8.14062ZM95.5977 15.7578C95.5977 19.3776 94.3932 22.5547 91.9844 25.2891C89.237 28.401 85.5195 29.957 80.832 29.957C76.1576 29.957 72.4466 28.401 69.6992 25.2891C67.2904 22.5547 66.0859 19.3776 66.0859 15.7578C66.0859 14.1042 66.4115 12.4115 67.0625 10.6797C67.7135 8.9349 68.5859 7.44401 69.6797 6.20703C72.4271 3.09505 76.1445 1.53906 80.832 1.53906C85.5195 1.53906 89.237 3.09505 91.9844 6.20703C94.3932 8.94141 95.5977 12.125 95.5977 15.7578ZM88.3906 15.7578C88.3906 13.8828 87.7917 12.2617 86.5938 10.8945C85.0573 9.14974 83.1367 8.27734 80.832 8.27734C79.2435 8.27734 77.8047 8.72656 76.5156 9.625C75.2266 10.5104 74.3086 11.6953 73.7617 13.1797C73.4492 14.026 73.293 14.8854 73.293 15.7578C73.293 17.5547 73.8919 19.1628 75.0898 20.582C76.5742 22.3398 78.4883 23.2188 80.832 23.2188C83.1758 23.2188 85.0964 22.3464 86.5938 20.6016C87.7917 19.2083 88.3906 17.5938 88.3906 15.7578ZM115.812 8.14062H110.07V29H103.137V8.14062H97.4922V2.33984H115.812V8.14062ZM134.055 29H118.879V2.33984H134.055V8.14062H125.812V12.6523H133.605V18.4531H125.812V23.1992H134.055V29ZM163.781 29H156.379L154.66 24.3516H145.09L143.254 29H135.93L146.184 2.33984H153.742L163.781 29ZM152.785 19.0781L149.914 10.582L147.004 19.0781H152.785ZM199.074 29H192.141L190.168 13.6484L183.723 29H180.969L174.816 13.6484L172.551 29H165.656L170.188 2.33984H177.023L182.434 16.5586L188.156 2.33984H195.051L199.074 29Z"
  fill="white"
/>
</svg>