<svg
width="24"
viewBox="0 0 30 30"
fill="white"
xmlns="http://www.w3.org/2000/svg"
>
<path
  d="M1 1.84102V28.1576C1.00018 28.2147 1.01729 28.2705 1.0492 28.318C1.08111 28.3654 1.1264 28.4024 1.17937 28.4244C1.23235 28.4464 1.29067 28.4523 1.347 28.4414C1.40334 28.4305 1.45519 28.4033 1.49606 28.3632L15.2693 15L1.49606 1.63545C1.45519 1.59536 1.40334 1.56817 1.347 1.55728C1.29067 1.5464 1.23235 1.55231 1.17937 1.57426C1.1264 1.59622 1.08111 1.63324 1.0492 1.6807C1.01729 1.72815 1.00018 1.78393 1 1.84102ZM21.0444 9.509L3.77444 0.0430562L3.76367 0.0370295C3.46617 -0.123683 3.18347 0.276759 3.42713 0.509791L16.9648 13.3882L21.0444 9.509ZM3.42848 29.4902C3.18347 29.7232 3.46617 30.1237 3.76502 29.963L3.77579 29.9569L21.0444 20.491L16.9648 16.6105L3.42848 29.4902ZM28.0161 13.3259L23.1935 10.6835L18.659 15L23.1935 19.3145L28.0161 16.6741C29.328 15.9529 29.328 14.0471 28.0161 13.3259Z"
/>
</svg>