<svg width="40" height="29" viewBox="0 0 40 29" fill="none" xmlns="http://www.w3.org/2000/svg">
<path d="M7.61999 22.71H-8.51229e-06V20.58L5.78999 10.89H0.239991V6.21004H12.96V7.92004L6.92999 18.03H8.39999C9.41999 18.03 10.28 18.03 10.98 18.03C11.68 18.01 12.39 17.95 13.11 17.85V22.44C12.77 22.54 12.37 22.61 11.91 22.65C11.47 22.67 11 22.69 10.5 22.71C10.02 22.73 9.51999 22.74 8.99999 22.74C8.49999 22.72 8.03999 22.71 7.61999 22.71ZM23.029 17.46C24.109 17.46 24.929 17.15 25.489 16.53C26.069 15.89 26.359 15.1 26.359 14.16C26.359 12.86 26.029 11.9 25.369 11.28C24.709 10.66 23.929 10.32 23.029 10.26C22.649 10.24 22.269 10.29 21.889 10.41C21.509 10.53 21.159 10.73 20.839 11.01C20.519 11.31 20.249 11.7 20.029 12.18C19.829 12.64 19.719 13.21 19.699 13.89C19.639 15.13 19.939 16.04 20.599 16.62C21.279 17.2 22.089 17.48 23.029 17.46ZM31.699 19.86C31.699 21.42 31.529 22.74 31.189 23.82C30.849 24.92 30.079 25.89 28.879 26.73C27.939 27.37 26.829 27.78 25.549 27.96C24.289 28.14 22.999 28.2 21.679 28.14C20.759 28.1 19.729 27.93 18.589 27.63C17.469 27.35 16.359 26.88 15.259 26.22L17.419 22.14C18.439 22.74 19.459 23.18 20.479 23.46C21.499 23.74 22.589 23.82 23.749 23.7C24.749 23.58 25.449 23.27 25.849 22.77C26.249 22.27 26.449 21.75 26.449 21.21V20.49C26.049 20.91 25.459 21.25 24.679 21.51C23.899 21.77 23.079 21.9 22.219 21.9C21.319 21.9 20.409 21.75 19.489 21.45C18.569 21.15 17.739 20.68 16.999 20.04C16.259 19.42 15.659 18.62 15.199 17.64C14.739 16.66 14.539 15.49 14.599 14.13C14.639 12.65 14.879 11.38 15.319 10.32C15.759 9.24004 16.339 8.36004 17.059 7.68004C17.779 7.00004 18.609 6.51004 19.549 6.21004C20.489 5.91004 21.479 5.78004 22.519 5.82004C23.379 5.86004 24.139 6.03004 24.799 6.33004C25.459 6.61004 26.009 6.96004 26.449 7.38004V6.21004H31.699V19.86ZM34.117 3.77893e-05H39.337V22.71H34.117V3.77893e-05Z" fill="currentColor"/>
</svg>
