<svg width="123" height="32" viewBox="0 0 123 32" fill="none" xmlns="http://www.w3.org/2000/svg">
<path d="M8.75447 10.5961C8.61856 12.0458 8.52318 14.6115 9.37919 15.7035C9.37919 15.7035 8.97622 12.8851 12.5886 9.34903C14.0431 7.92553 14.3793 5.98937 13.8715 4.53726C13.5829 3.71463 13.056 3.03507 12.5982 2.56057C12.3311 2.28159 12.5362 1.8214 12.9248 1.83809C15.2759 1.943 19.0862 2.59634 20.7052 6.6594C21.4158 8.44295 21.4682 10.2861 21.1296 12.1603C20.915 13.3572 20.152 16.0183 21.8927 16.3449C23.1349 16.5786 23.7358 15.5915 24.0053 14.8809C24.1173 14.5852 24.506 14.5113 24.7158 14.7474C26.8141 17.1342 26.9929 19.9454 26.559 22.3656C25.7197 27.0439 20.9818 30.4488 16.275 30.4488C10.395 30.4488 5.71433 27.0844 4.50066 20.9946C4.01185 18.5362 4.25983 13.672 8.05107 10.2384C8.33243 9.9809 8.79262 10.2098 8.75447 10.5961Z" fill="url(#paint0_radial_1552_288)"/>
<path d="M17.7171 20.7094C15.8155 18.2651 16.6669 15.4761 17.1335 14.3646C17.1962 14.2184 17.0289 14.0805 16.8971 14.1703C16.0791 14.7261 14.4034 16.0339 13.6231 17.8744C12.5667 20.3626 12.642 21.5806 13.2675 23.0681C13.644 23.9644 13.2068 24.1545 12.9871 24.1879C12.7738 24.2213 12.5771 24.0793 12.4202 23.9309C11.9688 23.4982 11.6472 22.9483 11.4914 22.3432C11.4579 22.2136 11.2884 22.1781 11.211 22.2847C10.6253 23.0932 10.322 24.3905 10.3073 25.3077C10.2613 28.1427 12.6064 30.4408 15.4431 30.4408C19.0183 30.4408 21.6229 26.4922 19.5685 23.1914C18.9723 22.2303 18.4117 21.6015 17.7171 20.7094Z" fill="url(#paint1_radial_1552_288)"/>
<path d="M45.16 25.92H37.54V23.79L43.33 14.1H37.78V9.42H50.5V11.13L44.47 21.24H45.94C47.98 21.24 49.24 21.24 50.65 21.06V25.65C49.33 25.98 46.9 25.92 45.16 25.92ZM52.409 9.42H57.599V25.92H52.409V9.42ZM57.599 7.68H52.409V3.66H57.599V7.68ZM68.1862 20.67C70.3462 20.64 71.5162 19.23 71.5162 17.37C71.5162 14.76 69.9862 13.56 68.1862 13.47C66.7162 13.38 64.9762 14.34 64.8562 17.1C64.7362 19.56 66.3262 20.7 68.1862 20.67ZM76.8562 23.07C76.8562 26.16 76.4362 28.23 74.0362 29.94C72.1762 31.2 69.5062 31.47 66.8362 31.35C65.0062 31.26 62.6362 30.72 60.4162 29.43L62.5762 25.35C64.6462 26.52 66.5962 27.15 68.9062 26.91C70.9162 26.67 71.6062 25.5 71.6062 24.42V23.7C70.8262 24.54 69.1162 25.11 67.3762 25.11C63.8362 25.11 59.5762 22.74 59.7562 17.34C59.9662 11.4 63.5362 8.82 67.6762 9.03C69.4162 9.09 70.7362 9.72 71.6062 10.59V9.42H76.8562V23.07ZM87.4342 20.67C89.5942 20.64 90.7642 19.23 90.7642 17.37C90.7642 14.76 89.2342 13.56 87.4342 13.47C85.9642 13.38 84.2242 14.34 84.1042 17.1C83.9842 19.56 85.5742 20.7 87.4342 20.67ZM96.1042 23.07C96.1042 26.16 95.6842 28.23 93.2842 29.94C91.4242 31.2 88.7542 31.47 86.0842 31.35C84.2542 31.26 81.8842 30.72 79.6642 29.43L81.8242 25.35C83.8942 26.52 85.8442 27.15 88.1542 26.91C90.1642 26.67 90.8542 25.5 90.8542 24.42V23.7C90.0742 24.54 88.3642 25.11 86.6242 25.11C83.0842 25.11 78.8242 22.74 79.0042 17.34C79.2142 11.4 82.7842 8.82 86.9242 9.03C88.6642 9.09 89.9842 9.72 90.8542 10.59V9.42H96.1042V23.07ZM98.5223 3.21H103.742V25.92H98.5223V3.21ZM105.809 17.76C105.809 12.24 109.169 8.82 114.029 8.82C119.009 8.82 121.889 12.48 121.889 17.82L121.769 19.47H110.939C111.059 21 112.529 21.84 114.239 21.84C115.799 21.84 116.879 21.21 117.839 20.04L121.229 22.98C119.459 25.41 117.059 26.52 114.029 26.52C109.199 26.52 105.719 23.16 105.809 17.76ZM116.819 15.45C116.609 14.07 115.409 13.41 114.059 13.41C112.559 13.41 111.419 14.16 111.239 15.45H116.819Z" fill="white"/>
<defs>
<radialGradient id="paint0_radial_1552_288" cx="0" cy="0" r="1" gradientUnits="userSpaceOnUse" gradientTransform="translate(15.1103 30.5229) rotate(-179.751) scale(16.8311 27.6165)">
<stop offset="0.314" stop-color="#FF9800"/>
<stop offset="0.662" stop-color="#FF6D00"/>
<stop offset="0.972" stop-color="#F44336"/>
</radialGradient>
<radialGradient id="paint1_radial_1552_288" cx="0" cy="0" r="1" gradientUnits="userSpaceOnUse" gradientTransform="translate(15.6398 15.8288) rotate(90.5795) scale(15.4298 11.6278)">
<stop offset="0.214" stop-color="#FFEA33"/>
<stop offset="0.328" stop-color="#FFF27D"/>
<stop offset="0.487" stop-color="#FFF48F"/>
<stop offset="0.672" stop-color="#FFF7AD"/>
<stop offset="0.793" stop-color="#FFF9C4"/>
<stop offset="0.822" stop-color="#FFF8BD" stop-opacity="0.804"/>
<stop offset="0.863" stop-color="#FFF6AB" stop-opacity="0.529"/>
<stop offset="0.91" stop-color="#FFF38D" stop-opacity="0.209"/>
<stop offset="0.941" stop-color="#FFF176" stop-opacity="0"/>
</radialGradient>
</defs>
</svg>
