<svg width="146" height="58" viewBox="0 0 146 58" fill="none" xmlns="http://www.w3.org/2000/svg">
<mask id="mask0_2514_459" style="mask-type:luminance" maskUnits="userSpaceOnUse" x="9" y="13" width="37" height="32">
<path d="M45.8295 13.377H9.56836V44.6089H45.8295V13.377Z" fill="white"/>
</mask>
<g mask="url(#mask0_2514_459)">
<mask id="mask1_2514_459" style="mask-type:luminance" maskUnits="userSpaceOnUse" x="9" y="13" width="37" height="32">
<path d="M45.8295 13.377H9.56836V44.6089H45.8295V13.377Z" fill="white"/>
</mask>
<g mask="url(#mask1_2514_459)">
<mask id="mask2_2514_459" style="mask-type:luminance" maskUnits="userSpaceOnUse" x="9" y="13" width="37" height="32">
<path d="M45.8295 13.377H9.56836V44.6089H45.8295V13.377Z" fill="white"/>
</mask>
<g mask="url(#mask2_2514_459)">
<path d="M9.622 22.3275C9.78754 21.4906 10.4767 21.1612 11.5725 21.3844C15.4303 22.1709 18.2301 25.7632 18.2589 30.0358C18.2823 33.3636 18.2445 30.4246 18.2589 33.7542C18.2787 36.8858 18.3435 41.0253 21.1649 41.7812C21.64 41.8807 22.1207 41.9516 22.6044 41.9936C22.6296 42.8629 22.6619 43.7321 22.6907 44.6014H22.6745C15.9989 44.8498 15.675 38.9124 15.657 34.0692C15.6391 30.6712 15.657 33.5418 15.6481 30.1439C15.6481 26.9871 13.9729 24.7985 10.9535 23.9563C9.94049 23.6755 9.46906 23.0942 9.622 22.3275Z" fill="white"/>
<path d="M43.4216 21.9224L43.1372 15.5225L39.8984 20.0723C41.1087 20.618 42.2852 21.2358 43.4216 21.9224Z" fill="white"/>
<path d="M43.6486 42.4524H42.1965C37.9177 35.7538 41.4767 28.7293 41.4767 28.7293C43.9617 26.6667 44.5896 26.3284 45.0521 24.4386C45.1583 24.0102 44.3557 23.2903 43.2798 22.5704C42.0616 21.8111 40.7854 21.1492 39.4632 20.5907C39.3175 20.5385 39.1808 20.4917 39.0603 20.4575L33.9843 13.3916L32.6256 20.7275C22.7292 36.1713 23.9654 44.6087 23.9654 44.6087H45.8042C45.8023 43.4186 44.8382 42.4545 43.6486 42.4524ZM34.0004 21.2152C34.0886 20.5889 34.6842 16.7734 34.6842 16.7734L37.4839 20.2991L34.0004 21.2152Z" fill="white"/>
</g>
</g>
</g>
<path d="M34.6592 36.9397C34.9003 37.9185 33.896 38.8839 32.9052 38.4817C32.075 38.1867 31.7536 37.2213 32.3294 36.39C33.6282 34.6604 32.6775 31.9386 30.5218 31C31.4992 32.8503 29.9996 34.5531 29.1426 35.2637C28.2857 35.9744 27.7099 36.7118 27.5358 37.1408C26.6655 39.2593 27.9643 41.2839 28.848 41.7666C28.4463 40.8549 28.0714 39.1118 29.6514 37.476C29.6514 37.476 29.1962 39.2191 30.187 40.4258C31.1779 41.6325 31.1645 42.5309 31.1645 42.5309C32.7043 42.5309 34.1638 41.6057 34.7798 40.0906C35.2484 39.1923 35.2886 37.771 34.6592 36.9397Z" fill="#EB6263"/>
<path d="M62.1378 36.73C62.9778 36.66 64.0861 36.625 65.4628 36.625C66.8395 36.625 68.6128 36.7883 70.7828 37.115L70.1878 41.28C67.5511 40.93 65.5095 40.755 64.0628 40.755C62.6395 40.755 60.3878 41.0117 57.3078 41.525L56.7478 37.85C61.1345 30.85 64.3545 25.3433 66.4078 21.33C63.1878 21.5167 60.3761 21.785 57.9728 22.135L57.3078 18.04C60.1778 17.4333 64.7628 17.095 71.0628 17.025L71.6578 20.07C68.2045 26.65 65.0311 32.2033 62.1378 36.73ZM79.5681 16.78C79.3581 20.4667 79.2531 24.62 79.2531 29.24C79.2531 33.86 79.4048 38.0717 79.7081 41.875L74.9831 41.455C74.6798 36.695 74.5281 32.4017 74.5281 28.575C74.5281 24.725 74.6331 20.6533 74.8431 16.36L79.5681 16.78ZM93.1853 27.105C93.2786 26.6383 93.3253 25.88 93.3253 24.83C93.3253 23.7567 93.1503 22.7767 92.8003 21.89C92.4503 20.98 91.9369 20.525 91.2603 20.525C90.4436 20.525 89.6503 21.5867 88.8803 23.71C88.1103 25.81 87.7253 28.0733 87.7253 30.5C87.7253 32.9033 87.9586 34.7933 88.4253 36.17C88.8919 37.5233 89.5803 38.2 90.4903 38.2C91.4003 38.2 92.0886 37.78 92.5553 36.94C93.0219 36.1 93.3719 34.8633 93.6053 33.23C92.7653 33.23 91.8669 33.3117 90.9103 33.475L90.1753 30.01C92.2986 29.87 94.9586 29.6133 98.1553 29.24C98.2953 30.4533 98.3653 31.5617 98.3653 32.565C98.3653 33.5683 98.0619 34.8167 97.4553 36.31C96.8719 37.8033 95.9853 39.1217 94.7953 40.265C93.6286 41.4083 92.3453 41.98 90.9453 41.98C88.5186 41.98 86.5703 41.035 85.1003 39.145C83.6536 37.255 82.9303 34.5833 82.9303 31.13C82.9303 28.5867 83.2453 26.2067 83.8753 23.99C84.5053 21.7733 85.4386 19.9533 86.6753 18.53C87.9119 17.1067 89.3236 16.395 90.9103 16.395C92.4503 16.395 93.8969 16.955 95.2503 18.075C95.9503 18.6583 96.5103 19.4983 96.9303 20.595C97.3736 21.6683 97.5953 22.8 97.5953 23.99C97.5953 25.18 97.4903 26.335 97.2803 27.455L93.1853 27.105ZM110.617 27.105C110.71 26.6383 110.757 25.88 110.757 24.83C110.757 23.7567 110.582 22.7767 110.232 21.89C109.882 20.98 109.369 20.525 108.692 20.525C107.875 20.525 107.082 21.5867 106.312 23.71C105.542 25.81 105.157 28.0733 105.157 30.5C105.157 32.9033 105.39 34.7933 105.857 36.17C106.324 37.5233 107.012 38.2 107.922 38.2C108.832 38.2 109.52 37.78 109.987 36.94C110.454 36.1 110.804 34.8633 111.037 33.23C110.197 33.23 109.299 33.3117 108.342 33.475L107.607 30.01C109.73 29.87 112.39 29.6133 115.587 29.24C115.727 30.4533 115.797 31.5617 115.797 32.565C115.797 33.5683 115.494 34.8167 114.887 36.31C114.304 37.8033 113.417 39.1217 112.227 40.265C111.06 41.4083 109.777 41.98 108.377 41.98C105.95 41.98 104.002 41.035 102.532 39.145C101.085 37.255 100.362 34.5833 100.362 31.13C100.362 28.5867 100.677 26.2067 101.307 23.99C101.937 21.7733 102.87 19.9533 104.107 18.53C105.344 17.1067 106.755 16.395 108.342 16.395C109.882 16.395 111.329 16.955 112.682 18.075C113.382 18.6583 113.942 19.4983 114.362 20.595C114.805 21.6683 115.027 22.8 115.027 23.99C115.027 25.18 114.922 26.335 114.712 27.455L110.617 27.105ZM119.369 40.79C119.065 35.9833 118.914 31.585 118.914 27.595C118.914 23.5817 119.042 19.9417 119.299 16.675L123.954 17.095C123.604 21.1083 123.429 24.9467 123.429 28.61C123.429 32.2733 123.487 34.9683 123.604 36.695C124.444 36.5783 126.509 36.345 129.799 35.995L130.499 40.055C128.749 40.265 126.275 40.615 123.079 41.105L119.369 40.79ZM132.588 41.14C132.495 37.4533 132.448 33.965 132.448 30.675C132.448 27.385 132.635 23.1033 133.008 17.83C136.998 17.2233 140.895 16.92 144.698 16.92V21.225C142.061 21.225 139.611 21.3067 137.348 21.47C137.255 24.0833 137.196 26.09 137.173 27.49C138.946 27.2333 141.046 27.0817 143.473 27.035L144.138 30.885C142.575 30.9083 140.23 31.0833 137.103 31.41C137.103 34.21 137.115 36.2283 137.138 37.465C139.168 37.3017 141.595 36.9517 144.418 36.415L145.013 40.265C143.03 41.175 140.685 41.63 137.978 41.63L132.588 41.14Z" fill="white"/>
</svg>
