<svg
width="108"
viewBox="0 0 108 58"
fill="none"
xmlns="http://www.w3.org/2000/svg"
>
<mask
  id="mask0_394_531"
  maskUnits="userSpaceOnUse"
  x="9"
  y="13"
  width="37"
  height="32"
>
  <path
    d="M45.8286 13.3767H9.56744V44.6086H45.8286V13.3767Z"
    fill="white"
  />
</mask>
<g mask="url(#mask0_394_531)">
  <mask
    id="mask1_394_531"
    maskUnits="userSpaceOnUse"
    x="9"
    y="13"
    width="37"
    height="32"
  >
    <path
      d="M45.8286 13.3767H9.56744V44.6086H45.8286V13.3767Z"
      fill="white"
    />
  </mask>
  <g mask="url(#mask1_394_531)">
    <mask
      id="mask2_394_531"
      maskUnits="userSpaceOnUse"
      x="9"
      y="13"
      width="37"
      height="32"
    >
      <path
        d="M45.8286 13.3767H9.56744V44.6086H45.8286V13.3767Z"
        fill="white"
      />
    </mask>
    <g mask="url(#mask2_394_531)">
      <path
        d="M9.6217 22.3275C9.78724 21.4906 10.4764 21.1612 11.5722 21.3844C15.43 22.1709 18.2298 25.7632 18.2586 30.0358C18.282 33.3636 18.2442 30.4246 18.2586 33.7542C18.2784 36.8858 18.3432 41.0253 21.1646 41.7812C21.6397 41.8807 22.1204 41.9516 22.6041 41.9936C22.6292 42.8629 22.6616 43.7321 22.6904 44.6014H22.6742C15.9986 44.8498 15.6747 38.9124 15.6567 34.0692C15.6387 30.6712 15.6567 33.5418 15.6477 30.1439C15.6477 26.9871 13.9725 24.7985 10.9532 23.9563C9.94018 23.6755 9.46875 23.0942 9.6217 22.3275Z"
        fill="white"
      />
      <path
        d="M43.4209 21.9224L43.1365 15.5225L39.8977 20.0723C41.108 20.618 42.2845 21.2358 43.4209 21.9224Z"
        fill="white"
      />
      <path
        d="M43.6476 42.4524H42.1955C37.9166 35.7538 41.4756 28.7293 41.4756 28.7293C43.9607 26.6667 44.5886 26.3284 45.051 24.4386C45.1573 24.0102 44.3547 23.2903 43.2787 22.5704C42.0605 21.8111 40.7843 21.1492 39.4622 20.5907C39.3165 20.5385 39.1797 20.4917 39.0592 20.4575L33.9833 13.3916L32.6246 20.7275C22.7282 36.1713 23.9644 44.6087 23.9644 44.6087H45.8032C45.8012 43.4186 44.8372 42.4545 43.6476 42.4524ZM33.9993 21.2152C34.0876 20.5889 34.6832 16.7734 34.6832 16.7734L37.4829 20.2991L33.9993 21.2152Z"
        fill="white"
      />
    </g>
  </g>
</g>
<path
  d="M34.6582 36.9397C34.8992 37.9185 33.895 38.8839 32.9041 38.4817C32.074 38.1867 31.7526 37.2213 32.3284 36.39C33.6272 34.6604 32.6765 31.9386 30.5207 31C31.4982 32.8503 29.9985 34.5531 29.1416 35.2637C28.2846 35.9744 27.7088 36.7118 27.5348 37.1408C26.6644 39.2593 27.9633 41.2839 28.847 41.7666C28.4453 40.8549 28.0704 39.1118 29.6504 37.476C29.6504 37.476 29.1951 39.2191 30.186 40.4258C31.1768 41.6325 31.1634 42.5309 31.1634 42.5309C32.7033 42.5309 34.1628 41.6057 34.7787 40.0906C35.2474 39.1923 35.2875 37.771 34.6582 36.9397Z"
  fill="#EB6263"
/>
<path
  d="M74.5088 16.864H80.1088V40.552H74.5088V16.864ZM59.6968 21.204H56.7288V16.864H72.9688V21.204H70.0008L73.2488 40.552H67.5088L64.8488 21.736L62.1888 40.552H56.4488L59.6968 21.204ZM82.9 23.108H99.784C99.8773 22.7347 99.9427 22.38 99.98 22.044C100.017 21.6893 100.045 21.3627 100.064 21.064H82.9V16.864H106.14C106.121 17.928 106.047 18.9827 105.916 20.028C105.804 21.0733 105.655 22.1 105.468 23.108H106.14V27.308H82.9V23.108ZM82.9 28.232H106.14V34.98C104.703 35.1853 103.293 35.3627 101.912 35.512C100.531 35.6427 99.1307 35.7547 97.712 35.848C96.2933 35.9413 94.828 36.0067 93.316 36.044C91.804 36.0813 90.1987 36.1 88.5 36.1V36.996C90.1987 36.996 91.804 36.9773 93.316 36.94C94.8467 36.9027 96.3307 36.8467 97.768 36.772C99.2053 36.6787 100.615 36.5573 101.996 36.408C103.396 36.2587 104.824 36.0813 106.28 35.876V40.552H82.9V32.656H100.54V31.788H82.9V28.232Z"
  fill="white"
/>
</svg>