<svg width="79" viewBox="0 0 79 32" fill="none" xmlns="http://www.w3.org/2000/svg">
<path d="M8.75447 11.0961C8.61856 12.5458 8.52318 15.1114 9.37919 16.2035C9.37919 16.2035 8.97622 13.3851 12.5886 9.849C14.0431 8.4255 14.3793 6.48934 13.8715 5.03723C13.5829 4.2146 13.056 3.53504 12.5982 3.06054C12.3311 2.78156 12.5362 2.32137 12.9248 2.33806C15.2759 2.44297 19.0862 3.0963 20.7052 7.15937C21.4158 8.94292 21.4682 10.7861 21.1296 12.6602C20.915 13.8572 20.152 16.5182 21.8927 16.8449C23.1349 17.0786 23.7358 16.0914 24.0053 15.3809C24.1173 15.0852 24.506 15.0113 24.7158 15.2473C26.8141 17.6341 26.9929 20.4454 26.559 22.8656C25.7197 27.5438 20.9818 30.9488 16.275 30.9488C10.395 30.9488 5.71433 27.5844 4.50066 21.4945C4.01185 19.0362 4.25983 14.172 8.05107 10.7384C8.33243 10.4809 8.79262 10.7098 8.75447 11.0961Z" fill="url(#paint0_radial_879_1373)"/>
<path d="M17.7171 21.2094C15.8155 18.7651 16.6669 15.9761 17.1335 14.8646C17.1962 14.7184 17.0289 14.5805 16.8971 14.6703C16.0791 15.2261 14.4034 16.5339 13.6231 18.3744C12.5667 20.8626 12.642 22.0806 13.2675 23.5681C13.644 24.4644 13.2068 24.6545 12.9871 24.6879C12.7738 24.7213 12.5771 24.5793 12.4202 24.4309C11.9688 23.9982 11.6472 23.4483 11.4914 22.8432C11.4579 22.7136 11.2884 22.6781 11.211 22.7847C10.6253 23.5932 10.322 24.8905 10.3073 25.8077C10.2613 28.6427 12.6064 30.9408 15.4431 30.9408C19.0183 30.9408 21.6229 26.9922 19.5685 23.6914C18.9723 22.7303 18.4117 22.1015 17.7171 21.2094Z" fill="url(#paint1_radial_879_1373)"/>
<path d="M45.16 26.42H37.54V24.29L43.33 14.6H37.78V9.92H50.5V11.63L44.47 21.74H45.94C47.98 21.74 49.24 21.74 50.65 21.56V26.15C49.33 26.48 46.9 26.42 45.16 26.42ZM60.569 21.17C62.729 21.14 63.899 19.73 63.899 17.87C63.899 15.26 62.369 14.06 60.569 13.97C59.099 13.88 57.359 14.84 57.239 17.6C57.119 20.06 58.709 21.2 60.569 21.17ZM69.239 23.57C69.239 26.66 68.819 28.73 66.419 30.44C64.559 31.7 61.889 31.97 59.219 31.85C57.389 31.76 55.019 31.22 52.799 29.93L54.959 25.85C57.029 27.02 58.979 27.65 61.289 27.41C63.299 27.17 63.989 26 63.989 24.92V24.2C63.209 25.04 61.499 25.61 59.759 25.61C56.219 25.61 51.959 23.24 52.139 17.84C52.349 11.9 55.919 9.32 60.059 9.53C61.799 9.59 63.119 10.22 63.989 11.09V9.92H69.239V23.57ZM71.657 3.71H76.877V26.42H71.657V3.71Z" fill="#252525"/>
<defs>
<radialGradient id="paint0_radial_879_1373" cx="0" cy="0" r="1" gradientUnits="userSpaceOnUse" gradientTransform="translate(15.1103 31.0229) rotate(-179.751) scale(16.8311 27.6165)">
<stop offset="0.314" stop-color="#FF9800"/>
<stop offset="0.662" stop-color="#FF6D00"/>
<stop offset="0.972" stop-color="#F44336"/>
</radialGradient>
<radialGradient id="paint1_radial_879_1373" cx="0" cy="0" r="1" gradientUnits="userSpaceOnUse" gradientTransform="translate(15.6398 16.3288) rotate(90.5795) scale(15.4298 11.6278)">
<stop offset="0.214" stop-color="#FFEA33"/>
<stop offset="0.328" stop-color="#FFF27D"/>
<stop offset="0.487" stop-color="#FFF48F"/>
<stop offset="0.672" stop-color="#FFF7AD"/>
<stop offset="0.793" stop-color="#FFF9C4"/>
<stop offset="0.822" stop-color="#FFF8BD" stop-opacity="0.804"/>
<stop offset="0.863" stop-color="#FFF6AB" stop-opacity="0.529"/>
<stop offset="0.91" stop-color="#FFF38D" stop-opacity="0.209"/>
<stop offset="0.941" stop-color="#FFF176" stop-opacity="0"/>
</radialGradient>
</defs>
</svg>
