<svg width="36" viewBox="0 0 340 340" fill="none" xmlns="http://www.w3.org/2000/svg">
<ellipse cx="170" cy="169.5" rx="169" ry="168.5" fill="white"/>
<path d="M169 0.5C124.266 0.764704 81.4615 18.755 49.9698 50.5275C18.4781 82.3 0.868388 125.262 1.00074 169.997C1.13309 214.732 18.9967 257.589 50.6759 289.175C82.355 320.76 125.265 338.497 170 338.497C214.735 338.497 257.645 320.76 289.324 289.175C321.003 257.589 338.867 214.732 338.999 169.997C339.132 125.262 321.522 82.3 290.03 50.5275C258.539 18.755 215.734 0.764704 171 0.5H169ZM169 86.5C189.068 86.7641 208.217 94.9554 222.268 109.286C236.319 123.617 244.13 142.924 243.998 162.993C243.866 183.063 235.801 202.265 221.563 216.41C207.325 230.555 188.07 238.493 168 238.493C147.93 238.493 128.675 230.555 114.437 216.41C100.199 202.265 92.1337 183.063 92.0016 162.993C91.8696 142.924 99.6814 123.617 113.732 109.286C127.783 94.9554 146.932 86.7641 167 86.5H169ZM57 287C75 263.667 97.3333 252 124 252H216C242.667 252 265 263.667 283 287C252.516 315.982 212.062 332.143 170 332.143C127.938 332.143 87.4839 315.982 57 287Z" fill="#DDDDDD"/>
</svg>
