<svg width="83" viewBox="0 0 83 36" fill="none" xmlns="http://www.w3.org/2000/svg">
<rect x="1" y="1" width="81" height="34" rx="17" fill="#EB6263"/>
<rect x="1" y="1" width="81" height="34" rx="17" stroke="white" stroke-width="2"/>
<path d="M14.0586 24.6598V11.3398H22.2306V13.5538H16.7226V16.6318H21.3846V18.8818H16.7226V22.4278H22.4286V24.6598H14.0586Z" fill="white"/>
<path d="M24.7548 24.6598V11.3398H27.4548L31.3248 18.4498L32.6748 21.3298H32.7648C32.6208 19.9438 32.4048 18.1618 32.4048 16.6498V11.3398H34.9428V24.6598H32.2248L28.3728 17.5318L27.0228 14.6878H26.9328C27.0588 16.1098 27.2748 17.7838 27.2748 19.3318V24.6598H24.7548Z" fill="white"/>
<path d="M61.986 4.66699C54.626 4.66699 48.666 10.6403 48.666 18.0003C48.666 25.3603 54.626 31.3337 61.986 31.3337C69.3593 31.3337 75.3327 25.3603 75.3327 18.0003C75.3327 10.6403 69.3593 4.66699 61.986 4.66699ZM71.226 12.667H67.2927C66.866 11.0003 66.2527 9.40033 65.4527 7.92033C67.906 8.76033 69.946 10.467 71.226 12.667ZM61.9993 7.38699C63.106 8.98699 63.9727 10.7603 64.546 12.667H59.4527C60.026 10.7603 60.8927 8.98699 61.9993 7.38699ZM51.6793 20.667C51.466 19.8137 51.3327 18.9203 51.3327 18.0003C51.3327 17.0803 51.466 16.187 51.6793 15.3337H56.186C56.0793 16.2137 55.9993 17.0937 55.9993 18.0003C55.9993 18.907 56.0793 19.787 56.186 20.667H51.6793ZM52.7727 23.3337H56.706C57.1327 25.0003 57.746 26.6003 58.546 28.0803C56.0927 27.2403 54.0527 25.547 52.7727 23.3337ZM56.706 12.667H52.7727C54.0527 10.4537 56.0927 8.76033 58.546 7.92033C57.746 9.40033 57.1327 11.0003 56.706 12.667ZM61.9993 28.6137C60.8927 27.0137 60.026 25.2403 59.4527 23.3337H64.546C63.9727 25.2403 63.106 27.0137 61.9993 28.6137ZM65.1193 20.667H58.8793C58.7593 19.787 58.666 18.907 58.666 18.0003C58.666 17.0937 58.7593 16.2003 58.8793 15.3337H65.1193C65.2393 16.2003 65.3327 17.0937 65.3327 18.0003C65.3327 18.907 65.2393 19.787 65.1193 20.667ZM65.4527 28.0803C66.2527 26.6003 66.866 25.0003 67.2927 23.3337H71.226C69.946 25.5337 67.906 27.2403 65.4527 28.0803ZM67.8127 20.667C67.9193 19.787 67.9993 18.907 67.9993 18.0003C67.9993 17.0937 67.9193 16.2137 67.8127 15.3337H72.3193C72.5327 16.187 72.666 17.0803 72.666 18.0003C72.666 18.9203 72.5327 19.8137 72.3193 20.667H67.8127Z" fill="white"/>
</svg>
