<svg width="304" height="369" viewBox="0 0 304 369" fill="none" xmlns="http://www.w3.org/2000/svg">
<path d="M151.054 368.537C143.542 368.537 137.19 362.746 136.61 355.137C136.001 347.161 141.956 340.21 149.923 339.581C150.425 339.543 200.284 335.047 217.125 298.734C236.732 256.475 228.775 236.665 219.658 224.125C214.95 217.648 216.381 208.579 222.859 203.871C229.336 199.162 238.405 200.593 243.113 207.071C263.049 234.48 263.155 268.453 243.442 310.944C219.378 362.804 154.902 368.295 152.175 368.498C151.798 368.527 151.421 368.537 151.054 368.537Z" fill="#959595"/>
<path d="M158.199 368.527H36.9417C16.5421 368.527 0 351.985 0 331.586V326.752C0 285.044 33.8189 251.225 75.5269 251.225H119.623C161.331 251.225 195.15 285.044 195.15 326.752V331.586C195.14 351.985 178.598 368.527 158.199 368.527Z" fill="#959595"/>
<path d="M243.732 0C210.6 0 183.751 26.8579 183.751 59.9807V102.568C183.751 135.701 210.609 162.549 243.732 162.549C276.865 162.549 303.713 135.691 303.713 102.568V59.9903C303.713 26.8579 276.865 0 243.732 0ZM249.301 101.785C247.841 103.245 246.033 103.941 244.216 103.941C242.688 103.941 240.803 103.458 239.13 101.785C238.221 100.877 236.974 99.2136 236.974 96.6999C236.974 94.1959 238.231 92.5233 239.13 91.6145C240.803 89.942 242.611 89.4586 244.138 89.4586C245.946 89.4586 247.831 90.1547 249.359 91.6822C250.538 92.8617 251.38 94.3989 251.38 96.6903C251.399 99.0009 250.558 100.528 249.301 101.785ZM257.383 78.669C255.508 80.7573 252.791 82.4299 249.591 83.126V86.8192H238.241V75.5366C239.004 75.7493 239.701 75.8846 240.609 75.8846C242.765 75.8846 245.482 75.2562 247.155 73.5836C248.199 72.5395 248.76 71.0796 248.76 69.7551C248.76 68.6432 248.411 67.3187 247.58 66.4873C246.816 65.6558 245.559 65.1627 244.235 65.1627C242.91 65.1627 241.866 65.6461 241.238 66.3422C240.474 67.106 239.981 68.4305 239.981 69.8227H227.731C227.944 65.4334 229.82 62.0303 231.908 59.942C234.209 57.641 238.173 55.4173 244.022 55.4173C249.871 55.4173 253.835 57.5733 256.349 59.942C258.853 62.3107 260.738 65.7235 260.738 69.9001C260.719 72.8972 259.607 76.165 257.383 78.669Z" fill="#959595"/>
<path d="M205.253 180.338L253.39 160.103C259.848 157.386 260.941 148.704 255.362 144.47L213.761 112.903C208.182 108.669 200.119 112.062 199.239 119.014L192.694 170.825C191.824 177.757 198.804 183.055 205.253 180.338Z" fill="#959595"/>
<path d="M180.87 291.956L161.621 205.581C159.591 196.464 155.192 188.218 149.072 181.266C157.232 172.971 162.085 162.646 162.085 151.44C162.085 148.84 161.824 146.287 161.321 143.803C161.321 143.725 161.321 143.638 161.312 143.561L155.83 81.9172C155.462 77.7503 150.406 75.894 147.428 78.8235L120.638 105.188C113.474 103.081 105.701 101.911 97.5701 101.911C88.8689 101.911 80.5737 103.245 73.0036 105.633L46.9578 80.003C43.98 77.0735 38.9237 78.9298 38.5563 83.0967L33.0745 144.74C33.0068 145.485 33.1131 146.191 33.3452 146.829C33.1615 148.346 33.0551 149.874 33.0551 151.431C33.0551 162.626 37.8988 172.952 46.0684 181.257C39.9485 188.198 35.5495 196.455 33.5192 205.572L14.2701 291.946C6.31328 327.641 37.2027 360.87 78.321 360.87H97.5701H116.819C157.938 360.88 188.827 327.65 180.87 291.956ZM70.2965 148.994C63.7126 148.492 59.1589 140.593 60.116 131.36C60.3577 128.991 60.9572 126.758 61.7983 124.766L81.4631 120.725C83.4547 123.954 84.4506 128.372 83.9478 133.177C82.9907 142.41 76.8805 149.497 70.2965 148.994ZM112.43 163.206L111.792 163.844C110.4 165.237 108.137 165.237 106.745 163.844L97.8215 154.921L88.9075 163.835C87.5153 165.227 85.253 165.227 83.8608 163.835L83.2227 163.197C81.8305 161.804 81.8305 159.542 83.2227 158.15L97.8312 143.541L100.993 146.703C101.012 146.722 101.012 146.732 101.031 146.751L112.44 158.16C113.832 159.552 113.832 161.814 112.43 163.206ZM123.877 148.994C117.293 149.497 111.183 142.41 110.216 133.168C109.713 128.372 110.719 123.944 112.701 120.715L132.365 124.756C133.216 126.758 133.806 128.981 134.048 131.35C135.015 140.602 130.461 148.501 123.877 148.994Z" fill="#959595"/>
</svg>
